<svg width="316" height="427" viewBox="0 0 316 427" fill="none" xmlns="http://www.w3.org/2000/svg">
<path fill-rule="evenodd" clip-rule="evenodd" d="M140.661 166.648C144.255 169.536 197.515 211.952 197.515 211.952L261.107 232.935L257.514 253.854L189.302 240.186L126.544 201.62L140.661 166.648Z" fill="#FFBE9B"/>
<path fill-rule="evenodd" clip-rule="evenodd" d="M250.263 235.052C250.263 235.052 256.423 227.031 259.567 223.887C262.711 220.743 266.241 212.272 266.241 212.272C266.241 212.272 269.321 213.62 269.193 216.572C269.128 219.523 265.599 228.443 266.305 229.662C267.075 230.881 270.861 231.972 271.631 231.651C272.401 231.331 290.561 224.208 292.037 225.555C293.513 226.903 294.026 229.598 292.229 230.625C290.433 231.651 279.973 234.346 280.55 235.63C281.128 236.977 294.347 233.961 295.309 235.566C296.208 237.17 295.887 239.544 293.962 240.186C291.973 240.828 282.026 243.074 282.283 244.293C282.604 245.512 293.128 242.496 294.026 243.523C294.86 244.485 293.898 246.924 292.679 247.245C291.459 247.565 278.497 250.646 278.561 252.442C278.625 254.175 286.262 254.752 287.16 255.33C288.379 256.164 286.711 258.667 283.31 258.218C282.219 258.025 258.605 254.367 255.91 253.726C253.15 253.084 250.263 235.052 250.263 235.052Z" fill="#FFBE9B"/>
<path fill-rule="evenodd" clip-rule="evenodd" d="M271.118 249.811C271.182 249.811 270.797 248.464 269.321 246.924C267.909 245.383 265.278 243.587 261.941 243.266C261.749 243.266 261.492 243.202 261.3 243.202L261.621 243.843C263.417 241.341 264.508 238.71 264.957 236.785C265.471 234.86 265.471 233.641 265.407 233.641C265.15 233.576 264.508 238.517 260.915 243.33L260.466 243.908L261.236 243.972C261.428 243.972 261.621 243.972 261.813 244.036C264.893 244.357 267.396 245.897 268.808 247.309C270.348 248.72 270.989 249.875 271.118 249.811Z" fill="#894941"/>
<path fill-rule="evenodd" clip-rule="evenodd" d="M41.7122 54.2871C41.7122 54.2871 5.45645 103.248 1.67045 109.601C-2.30805 116.275 1.92711 128.467 3.01799 130.199C4.10887 131.932 33.8835 171.845 33.8835 171.845L50.6959 145.793L27.8516 117.301L58.0112 66.6076L41.7122 54.2871Z" fill="#FFBE9B"/>
<path fill-rule="evenodd" clip-rule="evenodd" d="M58.5245 66.9287C58.5245 66.9287 67.5724 62.4368 71.2942 59.9984C74.9519 57.56 83.9356 55.7632 83.9356 55.7632C83.9356 55.7632 83.1655 52.4906 80.2779 51.9772C77.3903 51.4639 67.9574 53.1965 66.8665 52.2339C65.7756 51.2714 65.519 47.2929 65.9682 46.6512C66.4174 45.9453 77.0053 29.518 75.9144 27.8496C74.8877 26.117 72.3209 25.0903 70.9734 26.6945C69.6258 28.2987 64.9415 37.9883 63.7223 37.1541C62.5672 36.3199 68.0858 23.9352 66.674 22.716C65.2623 21.4968 62.8881 21.3685 61.8613 23.1652C60.8346 24.9619 56.6636 34.3307 55.5727 33.7531C54.4177 33.2398 59.4229 23.4219 58.6529 22.3952C57.8828 21.3684 55.3161 21.8176 54.7386 22.9727C54.2252 24.1277 48.5782 36.1915 46.9098 35.8065C45.1773 35.3573 46.204 27.7854 45.7548 26.7587C45.1773 25.4111 42.3539 26.5662 42.2255 29.9671C42.1614 31.058 41.1988 54.929 41.263 57.7525C41.3913 60.5117 58.5245 66.9287 58.5245 66.9287Z" fill="#7B2DF7"/>
<path fill-rule="evenodd" clip-rule="evenodd" d="M48.1291 43.5709C48.0007 43.6992 49.0274 44.4693 50.1183 46.2018C51.2092 47.9344 52.2359 50.6295 51.9151 53.7096C51.9151 53.9022 51.8509 54.0947 51.8509 54.2872L51.7867 55.0572L52.4926 54.7363C57.947 52.1696 62.9522 52.4904 62.888 52.2338C62.888 52.1054 61.6688 51.9129 59.6795 52.0413C57.6903 52.1696 54.931 52.683 52.1075 53.9663L52.6851 54.4155C52.6851 54.223 52.7492 53.9663 52.7492 53.7738C53.0701 50.437 51.8509 47.5494 50.5675 45.8168C49.4125 44.2126 48.1932 43.5067 48.1291 43.5709Z" fill="#894941"/>
<path fill-rule="evenodd" clip-rule="evenodd" d="M8.85745 0.064209L56.0219 93.6873L264.252 267.779L315.138 201.107L110.694 31.3789L8.85745 0.064209Z" fill="#8B75DB"/>
<path opacity="0.7" fill-rule="evenodd" clip-rule="evenodd" d="M112.042 31.3146C111.657 35.4857 106.908 38.63 102.93 37.3466C107.55 43.571 107.614 52.7472 103.186 59.1C98.7587 65.4528 90.0959 68.4687 82.6522 66.2869C84.6415 73.6664 82.3955 82.0726 76.9411 87.4628C71.4867 92.8531 63.0806 95.0348 55.7011 92.9172L8.85745 0L112.042 31.3146Z" fill="white"/>
<path fill-rule="evenodd" clip-rule="evenodd" d="M27.8516 37.6674C27.8516 37.6674 47.6799 41.0042 50.6317 12.8339L8.9216 0L27.8516 37.6674Z" fill="#8B75DB"/>
<path fill-rule="evenodd" clip-rule="evenodd" d="M282.219 238.967C282.091 239.159 237.236 200.722 182.05 153.172C126.865 105.623 82.3313 66.9288 82.4597 66.7363C82.588 66.5438 127.442 104.917 182.628 152.531C237.814 200.08 282.411 238.839 282.219 238.967Z" fill="white"/>
<path fill-rule="evenodd" clip-rule="evenodd" d="M303.202 210.732C303.074 210.925 258.22 172.487 203.034 124.938C147.848 77.3883 103.315 38.6942 103.443 38.5017C103.571 38.3092 148.426 76.6825 203.611 124.296C258.733 171.846 303.331 210.54 303.202 210.732Z" fill="white"/>
<path fill-rule="evenodd" clip-rule="evenodd" d="M243.974 287.735L240.573 322.708L208.296 319.756L217.151 283.885L243.974 287.735Z" fill="#FFBE9B"/>
<path fill-rule="evenodd" clip-rule="evenodd" d="M245.963 294.088L246.22 292.035C246.22 292.035 282.283 282.089 283.374 275.543L214.905 268.164L213.365 291.072C224.017 287.479 234.734 288.12 245.963 294.088Z" fill="#8B75DB"/>
<path fill-rule="evenodd" clip-rule="evenodd" d="M214.841 268.228L214.456 273.747L280.23 278.816C280.23 278.816 283.438 277.789 283.31 275.608L214.841 268.228Z" fill="#DFDFDF"/>
<path fill-rule="evenodd" clip-rule="evenodd" d="M246.605 283.821C246.541 283.821 246.284 284.27 246.284 285.104C246.22 285.939 246.412 287.094 246.926 288.249C247.503 289.404 248.273 290.302 248.979 290.751C249.685 291.265 250.134 291.393 250.198 291.329C250.327 291.136 248.594 290.11 247.632 287.928C246.541 285.81 246.797 283.821 246.605 283.821Z" fill="#202D34"/>
<path fill-rule="evenodd" clip-rule="evenodd" d="M242.883 284.206C242.691 284.142 242.37 286.324 243.525 288.634C244.616 290.944 246.477 292.099 246.541 291.906C246.669 291.714 245.193 290.43 244.167 288.313C243.14 286.195 243.14 284.206 242.883 284.206Z" fill="#202D34"/>
<path fill-rule="evenodd" clip-rule="evenodd" d="M252.059 282.73C251.867 282.666 251.097 284.27 251.418 286.388C251.738 288.506 252.958 289.853 253.086 289.725C253.279 289.596 252.38 288.185 252.123 286.26C251.867 284.399 252.252 282.795 252.059 282.73Z" fill="#202D34"/>
<path fill-rule="evenodd" clip-rule="evenodd" d="M250.327 290.687C250.263 290.623 249.493 291.329 248.979 292.869C248.722 293.639 248.466 294.537 248.337 295.564C248.273 296.077 248.209 296.655 248.145 297.168C248.145 297.425 248.081 297.746 248.145 298.067C248.209 298.387 248.337 298.837 248.787 299.093C249.236 299.35 249.749 299.157 250.006 298.901C250.263 298.644 250.455 298.323 250.519 298.067C250.712 297.553 250.904 296.976 250.968 296.462C251.161 295.436 251.097 294.409 250.968 293.639C250.648 292.035 250.07 291.2 250.006 291.265C249.878 291.329 250.327 292.227 250.455 293.703C250.519 294.473 250.519 295.371 250.327 296.334C250.198 296.847 250.07 297.297 249.878 297.81C249.685 298.259 249.3 298.644 249.172 298.516C248.915 298.387 248.851 297.874 248.915 297.297C248.979 296.783 248.979 296.206 249.043 295.692C249.172 294.666 249.3 293.767 249.493 293.061C249.878 291.585 250.455 290.751 250.327 290.687Z" fill="#202D34"/>
<path fill-rule="evenodd" clip-rule="evenodd" d="M250.776 290.944C250.776 290.88 250.712 290.816 250.455 290.687L250.263 290.559L250.327 290.816C250.391 291.329 250.648 292.356 251.289 293.575C251.61 294.152 252.059 294.794 252.573 295.436C252.829 295.757 253.15 296.077 253.471 296.334C253.664 296.462 253.856 296.655 254.113 296.783C254.369 296.912 254.754 296.912 255.075 296.719C255.524 296.462 255.589 295.885 255.524 295.564C255.46 295.243 255.268 294.987 255.139 294.73C254.883 294.281 254.562 293.831 254.241 293.446C253.599 292.676 252.894 292.099 252.252 291.714C250.968 290.88 250.07 290.687 250.006 290.816C249.942 290.944 250.776 291.265 251.931 292.163C252.509 292.612 253.086 293.19 253.664 293.896C253.92 294.281 254.241 294.666 254.434 295.115C254.69 295.564 254.819 296.077 254.626 296.077C254.305 296.334 253.535 295.436 253.022 294.922C252.509 294.345 252.059 293.767 251.739 293.19C251.033 292.099 250.712 291.136 250.519 290.687L250.391 290.816C250.648 290.944 250.776 291.008 250.776 290.944Z" fill="#202D34"/>
<path fill-rule="evenodd" clip-rule="evenodd" d="M53.1985 91.6339C53.391 78.8 66.6099 65.3245 79.4438 66.0945L121.218 72.0623L121.41 78.9926L122.822 164.466C122.822 164.466 120.512 192.187 97.2187 191.674C76.2995 191.225 76.4278 169.151 76.4278 169.086L76.2995 152.98C76.2995 152.98 59.4229 153.108 54.9952 131.868C52.8134 121.344 52.9418 105.944 53.1985 91.6339Z" fill="#FFBE9B"/>
<path fill-rule="evenodd" clip-rule="evenodd" d="M63.0163 110.115C63.0163 111.591 64.2997 112.746 65.7756 112.746C67.3157 112.746 68.4707 111.591 68.4707 110.115C68.4707 108.639 67.1874 107.484 65.7115 107.484C64.2356 107.484 63.0163 108.639 63.0163 110.115Z" fill="#202D34"/>
<path fill-rule="evenodd" clip-rule="evenodd" d="M57.4978 102.864C57.8828 103.184 59.8721 101.58 62.8239 101.452C65.7757 101.259 68.0216 102.671 68.2783 102.35C68.4066 102.158 68.0216 101.58 67.0591 100.938C66.0965 100.297 64.4923 99.7193 62.6314 99.7835C60.7704 99.8476 59.2946 100.618 58.3962 101.388C57.562 102.029 57.3053 102.671 57.4978 102.864Z" fill="#202D34"/>
<path fill-rule="evenodd" clip-rule="evenodd" d="M87.5291 108.254C87.5291 109.73 88.8124 110.885 90.2883 110.885C91.8284 110.885 92.9835 109.73 92.9835 108.254C92.9835 106.778 91.7 105.623 90.2241 105.623C88.6841 105.687 87.4649 106.842 87.5291 108.254Z" fill="#202D34"/>
<path fill-rule="evenodd" clip-rule="evenodd" d="M84.6415 102.029C85.0265 102.35 87.0157 100.746 89.9675 100.618C92.9193 100.425 95.1652 101.837 95.4219 101.516C95.5502 101.323 95.2294 100.746 94.2027 100.104C93.2402 99.4626 91.6359 98.8851 89.775 98.9492C87.9141 99.0134 86.4382 99.7834 85.5399 100.553C84.7057 101.195 84.449 101.901 84.6415 102.029Z" fill="#202D34"/>
<path fill-rule="evenodd" clip-rule="evenodd" d="M76.7486 121.986C76.7486 121.858 74.8876 121.665 71.9358 121.473C71.1658 121.408 70.46 121.344 70.3316 120.959C70.1391 120.574 70.3958 119.933 70.7166 119.227C71.3583 117.815 72.0001 116.275 72.7059 114.735C73.476 113.131 77.0052 103.89 77.0052 102.992C76.6844 102.928 74.1818 107.997 71.4867 114.414C70.845 116.018 70.2033 117.494 69.6258 118.906C69.3691 119.548 68.9199 120.318 69.3691 121.216C69.6258 121.665 70.1391 121.922 70.6525 122.05C71.1658 122.114 71.5508 122.114 71.9358 122.114C74.8876 122.114 76.7486 122.114 76.7486 121.986Z" fill="#202D34"/>
<path fill-rule="evenodd" clip-rule="evenodd" d="M76.1711 153.108C76.1711 153.108 90.6092 153.365 104.406 144.125C104.406 144.125 97.7962 159.397 76.2994 158.37L76.1711 153.108Z" fill="#FF996C"/>
<path fill-rule="evenodd" clip-rule="evenodd" d="M85.1547 92.1472C85.5398 93.0455 88.0424 92.2755 91.1225 92.3397C94.2027 92.3397 96.7695 93.1739 97.0903 92.2755C97.2186 91.8263 96.6411 91.0563 95.5502 90.2862C94.4593 89.5162 92.7909 88.8745 90.93 88.8745C89.0691 88.8745 87.4648 89.4521 86.4381 90.2221C85.4114 90.928 84.9622 91.7622 85.1547 92.1472Z" fill="#202D34"/>
<path fill-rule="evenodd" clip-rule="evenodd" d="M56.9202 92.7249C57.4336 93.5591 59.6154 92.7891 62.1822 92.7891C64.749 92.7249 66.9307 93.4308 67.444 92.6607C67.7007 92.2757 67.3799 91.4415 66.4173 90.6715C65.519 89.9014 63.9789 89.2598 62.1822 89.2598C60.3854 89.2598 58.8454 89.9656 57.947 90.7357C56.9845 91.5057 56.6636 92.3399 56.9202 92.7249Z" fill="#202D34"/>
<path fill-rule="evenodd" clip-rule="evenodd" d="M85.4756 123.847C86.3098 125.323 87.0799 128.018 86.9515 129.686C86.759 131.355 85.7965 133.023 84.2564 133.729C82.588 134.499 80.5987 133.986 79.0587 132.959C77.5186 131.932 76.4278 130.456 75.3369 128.98C78.4812 127.376 82.3955 125.515 85.4756 123.847Z" fill="#FF996C"/>
<path fill-rule="evenodd" clip-rule="evenodd" d="M80.6629 134.692C80.5987 134.756 82.2671 135.205 84.5131 133.857C85.6039 133.216 86.6948 132.125 87.2724 130.521C87.8499 128.916 87.7857 126.927 86.8874 125.195C86.5665 124.489 86.0532 123.847 85.5398 123.334L85.3473 123.141L85.0906 123.269C82.203 124.489 79.7645 125.9 78.0961 126.991C76.4277 128.082 75.5294 128.852 75.5936 128.916C75.7219 129.109 79.7004 126.414 85.4756 124.039L85.0264 123.975C85.4756 124.424 85.9248 124.938 86.1815 125.58C86.9516 127.12 87.0157 128.852 86.5665 130.264C86.1173 131.676 85.1548 132.702 84.1922 133.344C82.203 134.692 80.5987 134.563 80.6629 134.692Z" fill="#202D34"/>
<path fill-rule="evenodd" clip-rule="evenodd" d="M118.074 103.248C118.395 103.12 131.036 98.8849 131.1 111.911C131.164 125.002 118.074 122.371 118.01 121.986C118.01 121.601 118.074 103.248 118.074 103.248Z" fill="#FFBE9B"/>
<path fill-rule="evenodd" clip-rule="evenodd" d="M121.988 117.045C122.052 116.981 122.245 117.173 122.63 117.366C123.015 117.558 123.656 117.622 124.362 117.366C125.71 116.852 126.865 114.671 126.929 112.296C126.929 111.077 126.672 109.986 126.287 109.024C125.902 108.061 125.261 107.419 124.555 107.291C123.849 107.163 123.4 107.548 123.207 107.933C123.015 108.318 123.143 108.574 123.079 108.574C123.015 108.639 122.822 108.382 122.886 107.804C122.951 107.548 123.079 107.227 123.4 106.97C123.721 106.714 124.17 106.585 124.683 106.649C125.71 106.714 126.608 107.612 127.057 108.639C127.571 109.665 127.892 110.949 127.892 112.296C127.827 114.927 126.48 117.43 124.619 117.943C123.721 118.2 122.951 117.943 122.566 117.622C122.052 117.366 121.988 117.045 121.988 117.045Z" fill="#894941"/>
<path fill-rule="evenodd" clip-rule="evenodd" d="M125.517 72.9607C124.555 84.8962 123.592 96.8317 122.63 108.767C122.501 110.692 122.052 112.938 120.32 113.708C118.01 114.671 115.764 112.168 114.673 109.986C108.512 97.6017 108.577 83.1636 109.026 69.3672L125.517 72.9607Z" fill="#202D34"/>
<path fill-rule="evenodd" clip-rule="evenodd" d="M121.41 85.9228C128.084 85.7303 133.988 79.4417 133.795 72.7681C133.603 66.0945 127.314 60.1909 120.64 60.3834C120.833 54.6082 116.854 49.0254 111.336 47.2928C105.817 45.6244 99.3362 48.0629 96.3202 52.9397C90.545 45.9453 80.9838 42.3518 71.9359 43.571C64.2997 44.5336 56.8561 49.0896 53.776 56.1482C53.776 56.1482 44.0222 58.6508 43.7014 67.2495C43.3805 77.1958 50.6958 77.8375 50.6958 77.8375C50.6958 77.8375 47.9366 80.5968 50.2467 83.8052C52.5568 86.9495 57.4336 87.7195 57.4336 87.7195C63.4655 88.1687 69.69 84.8961 72.7701 79.6984C74.3743 83.5485 78.6737 86.0511 82.7805 85.6661C86.8874 85.2811 90.6092 81.9443 91.4434 77.8375C93.4968 80.9818 97.0903 83.0352 100.812 83.2918C104.534 83.5485 108.384 81.9443 110.823 79.1208C112.876 82.9068 117.047 85.4736 121.346 85.602L121.41 85.9228Z" fill="#202D34"/>
<path fill-rule="evenodd" clip-rule="evenodd" d="M81.1121 306.73L164.789 416.588C164.789 416.588 131.357 432.566 106.01 408.182C92.7909 395.412 49.5408 318.729 49.5408 318.729L81.1121 306.73Z" fill="#202D34"/>
<path fill-rule="evenodd" clip-rule="evenodd" d="M173.323 420.823C168.254 418.577 157.217 408.502 153.367 404.46L94.5877 342.28L68.0857 317.703L144.319 291.65C145.089 293.382 166.201 321.168 166.201 321.168L187.89 354.472L200.66 299.479L245.514 308.334C245.514 308.334 237.75 360.504 231.525 389.059C229.023 400.545 221.579 412.802 212.21 419.86C203.034 426.855 192.638 429.357 173.323 420.823Z" fill="#202D34"/>
<path fill-rule="evenodd" clip-rule="evenodd" d="M95.5503 343.499C95.5503 343.499 95.7428 343.82 96.192 344.333C96.7053 344.911 97.2828 345.681 98.117 346.643C99.7854 348.632 102.224 351.52 105.24 355.049C111.336 362.108 119.935 371.733 129.688 382.065C139.442 392.396 148.554 401.508 155.292 407.989C158.629 411.262 161.388 413.828 163.313 415.561C164.211 416.395 164.982 417.037 165.559 417.614C166.072 418.064 166.329 418.32 166.393 418.256C166.393 418.256 166.201 417.935 165.687 417.486C165.174 416.909 164.468 416.203 163.57 415.368C161.645 413.443 159.014 410.812 155.741 407.604C149.132 400.995 140.148 391.883 130.33 381.551C120.576 371.22 111.913 361.659 105.753 354.728C102.737 351.327 100.235 348.504 98.4379 346.515C97.6037 345.616 96.962 344.846 96.4486 344.269C95.807 343.756 95.5503 343.499 95.5503 343.499Z" fill="#365864"/>
<path fill-rule="evenodd" clip-rule="evenodd" d="M199.633 376.033C199.825 375.904 197.451 371.156 194.307 365.316C191.163 359.541 188.468 354.921 188.275 355.049C188.083 355.178 190.457 359.926 193.601 365.766C196.745 371.541 199.44 376.161 199.633 376.033Z" fill="#365864"/>
<path fill-rule="evenodd" clip-rule="evenodd" d="M76.2994 157.407L62.7597 160.873C62.7597 160.873 49.4766 171.075 43.2522 204.508C36.9636 237.94 32.9851 332.782 32.9851 332.782C32.9851 332.782 39.4021 333.809 63.4014 332.397C87.4007 331.05 152.597 298.516 153.688 298.131C154.843 297.682 149.26 288.185 145.667 283.308C140.597 276.377 128.405 265.982 128.405 265.982L122.501 250.389L136.811 219.78L172.361 188.145C172.361 188.145 153.752 172.231 142.843 163.888C131.934 155.546 123.849 156.381 122.63 156.445C122.63 156.445 120.448 163.183 107.999 166.904C95.5503 170.626 89.5183 169.792 86.4381 168.637C83.358 167.546 76.2994 157.407 76.2994 157.407Z" fill="#3D21E7"/>
<path fill-rule="evenodd" clip-rule="evenodd" d="M49.8616 144.83L74.3744 153.878L78.417 160.937L54.3535 189.492L44.9206 196.808L29.7125 173.45L49.8616 144.83Z" fill="#3D21E7"/>
<path fill-rule="evenodd" clip-rule="evenodd" d="M136.875 219.716C136.94 219.652 136.362 218.946 135.271 217.598C134.18 216.315 132.64 214.39 130.779 212.016C127.122 207.267 122.116 200.401 118.844 191.867C117.175 187.631 116.341 183.268 116.405 179.289C116.469 175.375 117.239 171.782 118.459 169.086C118.972 167.675 119.678 166.52 120.255 165.429C120.576 164.915 120.769 164.402 121.09 163.953C121.346 163.568 121.667 163.183 121.924 162.798C122.886 161.45 123.4 160.616 123.336 160.616C123.271 160.552 122.694 161.322 121.603 162.605C121.346 162.926 121.025 163.311 120.705 163.696C120.384 164.145 120.127 164.595 119.806 165.108C119.165 166.135 118.395 167.29 117.881 168.766C116.534 171.525 115.699 175.182 115.571 179.161C115.443 183.204 116.277 187.696 118.01 191.995C121.411 200.722 126.544 207.524 130.33 212.208C132.255 214.518 133.859 216.379 135.014 217.598C136.169 219.074 136.811 219.78 136.875 219.716Z" fill="#202D34"/>
<path fill-rule="evenodd" clip-rule="evenodd" d="M106.138 279.65C106.202 279.65 106.587 279.137 107.165 278.174C107.807 277.212 108.641 275.736 109.667 273.939C111.721 270.346 114.48 265.276 117.368 259.693C120.255 254.175 122.822 249.17 124.811 245.319C125.71 243.587 126.416 242.175 127.057 240.956C127.571 239.929 127.827 239.352 127.763 239.288C127.699 239.288 127.378 239.801 126.737 240.763C126.159 241.726 125.261 243.202 124.234 244.999C122.18 248.592 119.485 253.662 116.598 259.244C113.71 264.763 111.143 269.704 109.09 273.554C108.192 275.287 107.422 276.698 106.78 277.918C106.331 279.008 106.074 279.586 106.138 279.65Z" fill="#202D34"/>
<path fill-rule="evenodd" clip-rule="evenodd" d="M110.309 284.784C110.502 284.976 114.159 280.356 119.357 275.287C124.619 270.345 128.662 266.046 128.469 265.854C128.405 265.789 127.314 266.752 125.517 268.356C123.785 269.96 121.346 272.142 118.715 274.709C116.084 277.212 113.903 279.714 112.491 281.639C111.015 283.5 110.181 284.719 110.309 284.784Z" fill="#202D34"/>
<path fill-rule="evenodd" clip-rule="evenodd" d="M55.0594 169.792C54.9953 169.792 54.6744 170.177 54.1611 170.947C53.6477 171.717 52.8776 172.937 52.0434 174.412C50.375 177.364 48.3216 181.664 46.6532 186.605C44.9848 191.546 44.0223 196.166 43.509 199.567C43.2523 201.235 43.1239 202.647 43.0597 203.609C42.9956 204.572 42.9956 205.085 43.0597 205.085C43.1881 205.085 43.4447 203.032 44.0864 199.695C44.7281 196.358 45.819 191.802 47.4233 186.861C49.0917 181.984 51.0168 177.685 52.5568 174.669C54.0969 171.653 55.1878 169.856 55.0594 169.792Z" fill="#202D34"/>
<path fill-rule="evenodd" clip-rule="evenodd" d="M41.7121 214.326C41.7121 214.326 42.6105 214.582 44.2789 214.518C45.9473 214.454 48.5141 214.005 51.2734 212.336C52.6851 211.502 54.0968 210.411 55.4444 209C56.7919 207.588 58.0753 205.791 58.9095 203.674C59.7438 201.556 60.257 199.053 60.1287 196.487C60.1287 195.845 60.0646 195.203 59.9362 194.497C59.8721 194.177 59.8721 193.791 59.6154 193.471C59.4229 193.15 59.102 192.893 58.717 192.701C58.0111 192.38 57.0486 192.636 56.5352 193.15C55.9577 193.599 55.4443 194.112 54.9952 194.626C53.0701 196.872 51.915 199.888 52.0434 203.096C52.0434 206.305 53.6476 209.577 56.2144 211.823C58.7812 214.133 62.2463 215.609 65.9039 215.609C69.5616 215.673 73.2835 214.262 76.2994 211.823C77.8395 210.604 79.1229 209.128 80.2137 207.524C81.3046 205.92 82.0105 203.866 82.203 201.877C82.3313 199.888 82.0746 197.642 80.6629 195.909C79.2512 194.176 76.6203 193.727 74.631 194.626C72.5776 195.396 71.1017 197.385 70.46 199.438C69.69 201.428 69.1766 203.545 69.1124 205.727C68.7916 210.026 69.8183 214.454 71.8717 218.368C73.9252 222.283 77.0695 225.62 80.8554 227.737C84.6414 229.855 89.0049 230.689 93.1759 230.432C101.518 229.983 109.283 225.106 112.491 217.983C113.261 216.187 113.71 214.262 113.582 212.401C113.453 210.476 112.812 208.615 111.721 207.139C110.63 205.599 109.09 204.508 107.293 203.994C105.496 203.545 103.636 203.93 102.095 204.7C100.555 205.47 99.2721 206.754 98.4379 208.23C97.6037 209.705 97.2828 211.374 97.2186 212.978C97.1545 216.187 98.4379 219.138 100.106 221.513C103.507 226.197 108.384 228.892 112.748 230.111C117.175 231.331 121.218 231.331 124.362 230.753C127.507 230.176 129.881 229.213 131.357 228.379C132.833 227.545 133.538 227.031 133.538 227.031C133.538 227.031 133.346 227.095 132.961 227.352C132.576 227.545 132.063 227.93 131.293 228.25C129.817 229.02 127.442 229.919 124.362 230.432C121.218 230.946 117.239 230.946 112.94 229.662C108.641 228.443 103.956 225.748 100.684 221.192C99.0796 218.946 97.8603 216.058 97.9886 213.042C98.0528 211.566 98.3737 209.962 99.1437 208.615C99.9137 207.267 101.069 206.112 102.545 205.406C103.956 204.7 105.689 204.379 107.293 204.764C108.897 205.149 110.309 206.24 111.336 207.588C112.363 208.935 112.94 210.668 113.004 212.465C113.068 214.262 112.683 216.058 111.913 217.727C108.833 224.529 101.326 229.213 93.2402 229.662C89.1975 229.919 85.0265 229.085 81.433 227.031C77.7753 224.978 74.7594 221.833 72.8343 218.047C70.845 214.261 69.8825 209.962 70.1392 205.855C70.2034 203.802 70.7167 201.748 71.4226 199.823C72.0643 197.834 73.2835 196.23 75.0802 195.524C76.8128 194.818 78.9945 195.139 80.2137 196.615C81.433 198.027 81.6896 200.08 81.6254 201.941C81.3688 205.791 78.8662 209.064 76.0427 211.374C73.2193 213.684 69.6258 215.096 66.1606 215.032C62.6955 215.032 59.3587 213.62 56.9202 211.438C54.4818 209.256 52.9418 206.24 52.9418 203.16C52.8776 200.144 53.9043 197.192 55.7011 195.075C56.1503 194.562 56.6636 194.048 57.1769 193.663C57.6903 193.214 58.2036 193.086 58.7812 193.278C59.3587 193.535 59.6154 193.984 59.6796 194.626C59.8079 195.267 59.8721 195.909 59.8721 196.551C60.0004 199.053 59.5512 201.492 58.717 203.545C57.8828 205.663 56.7278 207.395 55.4444 208.807C54.161 210.219 52.7492 211.374 51.4017 212.144C48.7066 213.812 46.204 214.326 44.5356 214.39C42.5463 214.454 41.7121 214.262 41.7121 214.326Z" fill="white"/>
</svg>
