<svg width="465" height="550" viewBox="0 0 465 550" fill="none" xmlns="http://www.w3.org/2000/svg">
<path fill-rule="evenodd" clip-rule="evenodd" d="M227.367 0.299823C268.375 -3.06278 304.294 22.5354 339.894 43.1639C379.878 66.3324 426.216 85.2438 446.017 126.996C466.876 170.983 474.946 229.453 447.211 269.463C419.667 309.198 357.246 295.61 314.061 317.353C281.39 333.803 263.388 373.789 227.367 380.153C188.474 387.023 148.231 374.052 115.14 352.492C80.8705 330.165 58.6695 295.45 40.853 258.634C20.4156 216.402 -13.2932 168.939 5.51054 125.955C24.4628 82.6312 86.3455 83.8859 127.493 60.5805C162.177 40.9363 187.639 3.55745 227.367 0.299823Z" fill="#A716F4"/>
<path fill-rule="evenodd" clip-rule="evenodd" d="M227.367 0.299823C268.375 -3.06278 304.294 22.5354 339.894 43.1639C379.878 66.3324 426.216 85.2438 446.017 126.996C466.876 170.983 474.946 229.453 447.211 269.463C419.667 309.198 357.246 295.61 314.061 317.353C281.39 333.803 263.388 373.789 227.367 380.153C188.474 387.023 148.231 374.052 115.14 352.492C80.8705 330.165 58.6695 295.45 40.853 258.634C20.4156 216.402 -13.2932 168.939 5.51054 125.955C24.4628 82.6312 86.3455 83.8859 127.493 60.5805C162.177 40.9363 187.639 3.55745 227.367 0.299823Z" fill="url(#paint0_linear_235_87)"/>
<path fill-rule="evenodd" clip-rule="evenodd" d="M264.908 67.1565C280.998 69.3268 295.517 79.8789 303.15 94.173C310.784 108.467 311.682 126.054 306.368 141.321C300.98 156.588 289.679 169.535 275.61 177.692C270.222 180.76 263.112 183.08 258.098 179.488C255.703 177.767 254.281 174.923 253.009 172.229C240.287 145.961 227.639 119.693 214.916 93.4994L264.908 67.1565Z" fill="#202D34"/>
<path fill-rule="evenodd" clip-rule="evenodd" d="M161.931 101.657C162.38 97.0168 166.421 93.3497 170.912 91.9278C175.402 90.5059 180.191 90.8801 184.831 91.2543C182.811 85.3421 180.715 79.2802 181.09 73.0687C181.464 66.8571 185.056 60.4211 190.968 58.5502C196.057 56.9786 201.67 58.9992 206.235 61.7682C210.8 64.5372 215.066 68.0546 220.155 69.7758C233.401 74.1913 247.546 65.2107 261.465 66.3333C275.759 67.5307 289.38 82.1989 288.931 96.5678C267.078 107.868 244.926 119.244 226.067 135.034C215.889 143.566 205.038 154.043 191.791 153.37C183.559 152.995 175.626 147.757 172.034 140.348C168.442 132.864 169.265 123.509 174.13 116.774C168.217 113.481 161.332 108.542 161.931 101.657Z" fill="#202D34"/>
<path fill-rule="evenodd" clip-rule="evenodd" d="M188.274 130.918C187.601 112.359 205.711 91.9278 224.271 92.0026L285.114 97.391L285.937 107.344L294.469 230.827C294.469 230.827 293.272 271.015 259.52 272.137C229.21 273.11 227.714 241.154 227.714 241.08L226.292 217.805C226.292 217.805 201.894 219.227 193.962 188.918C190.07 173.875 189.022 151.574 188.274 130.918Z" fill="#FFBE9B"/>
<path fill-rule="evenodd" clip-rule="evenodd" d="M203.391 156.363C203.541 158.459 205.412 160.105 207.582 159.955C209.753 159.88 211.399 158.084 211.324 155.989C211.174 153.893 209.303 152.247 207.133 152.397C204.963 152.546 203.242 154.268 203.391 156.363Z" fill="#202D34"/>
<path fill-rule="evenodd" clip-rule="evenodd" d="M195.384 146.784C195.908 147.233 198.677 144.763 202.942 144.314C207.208 143.865 210.501 145.736 210.95 145.137C211.175 144.913 210.576 144.015 209.079 143.117C207.657 142.294 205.262 141.545 202.643 141.845C200.024 142.144 197.853 143.341 196.656 144.464C195.459 145.587 195.084 146.559 195.384 146.784Z" fill="#202D34"/>
<path fill-rule="evenodd" clip-rule="evenodd" d="M239.388 152.546C239.538 154.642 241.409 156.288 243.579 156.138C245.749 156.064 247.396 154.267 247.321 152.172C247.171 150.077 245.301 148.43 243.13 148.58C240.885 148.729 239.239 150.451 239.388 152.546Z" fill="#202D34"/>
<path fill-rule="evenodd" clip-rule="evenodd" d="M234.524 143.566C235.048 144.015 237.817 141.546 242.083 141.097C246.348 140.647 249.641 142.518 250.09 141.92C250.315 141.695 249.716 140.797 248.219 139.899C246.797 139.076 244.403 138.328 241.783 138.627C239.164 138.926 236.994 140.124 235.796 141.246C234.599 142.369 234.299 143.342 234.524 143.566Z" fill="#202D34"/>
<path fill-rule="evenodd" clip-rule="evenodd" d="M224.645 172.902C224.645 172.678 221.951 172.603 217.61 172.528C216.488 172.528 215.44 172.453 215.216 171.929C214.916 171.331 215.216 170.433 215.665 169.385C216.488 167.289 217.311 165.044 218.134 162.724C219.107 160.33 223.523 146.709 223.448 145.437C222.924 145.362 219.781 152.921 216.338 162.35C215.515 164.67 214.767 166.915 214.018 169.011C213.719 169.984 213.12 171.106 213.794 172.304C214.168 172.902 214.991 173.276 215.739 173.351C216.488 173.426 217.087 173.426 217.61 173.351C222.026 173.351 224.645 173.127 224.645 172.902Z" fill="#202D34"/>
<path fill-rule="evenodd" clip-rule="evenodd" d="M226.217 218.03C226.217 218.03 247.097 217.281 266.405 202.912C266.405 202.912 258.023 225.439 226.89 225.663L226.217 218.03Z" fill="#FF996C"/>
<path fill-rule="evenodd" clip-rule="evenodd" d="M234.524 129.197C235.123 130.469 238.715 129.122 243.13 128.972C247.546 128.748 251.363 129.721 251.737 128.449C251.886 127.85 251.063 126.727 249.342 125.68C247.695 124.632 245.226 123.883 242.532 123.958C239.837 124.108 237.592 125.081 236.17 126.203C234.898 127.401 234.3 128.598 234.524 129.197Z" fill="#202D34"/>
<path fill-rule="evenodd" clip-rule="evenodd" d="M193.737 132.191C194.561 133.313 197.629 132.041 201.296 131.891C205.038 131.592 208.181 132.49 208.855 131.293C209.154 130.694 208.63 129.571 207.208 128.524C205.861 127.476 203.541 126.653 200.997 126.802C198.452 126.952 196.282 128.075 195.01 129.272C193.812 130.395 193.438 131.592 193.737 132.191Z" fill="#202D34"/>
<path fill-rule="evenodd" clip-rule="evenodd" d="M189.247 113.182C193.737 102.106 203.616 93.724 214.692 89.3086C225.843 84.8931 238.116 84.2196 250.015 85.4918C261.915 86.7641 273.514 89.9821 285.04 93.2001C287.809 93.9485 290.877 94.9214 292.448 97.391C293.496 99.0375 293.646 101.133 293.721 103.079C294.544 119.618 295.442 136.232 296.265 152.771L292.897 163.398C287.584 163.997 282.645 160.629 278.753 156.887C265.058 144.09 256.676 125.829 255.778 107.045C254.431 109.29 254.206 111.984 253.608 114.529C253.009 117.073 251.737 119.768 249.342 120.666C245.3 122.237 241.259 117.897 240.137 113.706C239.014 109.515 239.239 104.8 236.769 101.208C233.177 107.793 228.088 113.556 222.026 117.897C219.182 119.917 215.216 121.713 212.222 119.842C210.127 118.495 209.303 115.726 209.678 113.257C210.052 110.787 211.249 108.542 212.522 106.372C208.031 112.433 201.745 117.148 194.71 119.768C193.139 120.366 191.342 120.815 189.921 119.842C187.825 118.495 188.349 115.427 189.247 113.182Z" fill="#202D34"/>
<path fill-rule="evenodd" clip-rule="evenodd" d="M282.944 142.743C283.393 142.518 301.354 135.409 302.477 154.268C303.599 173.127 284.441 170.358 284.366 169.834C284.366 169.31 282.944 142.743 282.944 142.743Z" fill="#FFBE9B"/>
<path fill-rule="evenodd" clip-rule="evenodd" d="M289.754 162.35C289.829 162.275 290.129 162.575 290.652 162.799C291.176 163.024 292.149 163.099 293.122 162.724C295.068 161.901 296.565 158.608 296.415 155.166C296.34 153.445 295.891 151.798 295.217 150.526C294.544 149.179 293.571 148.281 292.598 148.131C291.55 147.981 290.877 148.58 290.727 149.179C290.503 149.703 290.652 150.077 290.578 150.152C290.503 150.227 290.129 149.852 290.278 149.104C290.353 148.73 290.503 148.281 290.952 147.907C291.401 147.532 292.074 147.308 292.748 147.308C294.244 147.308 295.592 148.58 296.34 150.002C297.163 151.424 297.762 153.295 297.762 155.166C297.837 158.983 296.116 162.65 293.421 163.622C292.149 164.072 290.952 163.697 290.353 163.323C289.829 162.799 289.679 162.35 289.754 162.35Z" fill="#FF996C"/>
<path fill-rule="evenodd" clip-rule="evenodd" d="M237.517 174.998C238.865 177.019 240.212 180.91 240.062 183.38C239.912 185.85 238.64 188.244 236.47 189.367C234.15 190.564 231.156 190.04 228.911 188.693C226.666 187.346 224.87 185.251 223.223 183.23C227.564 180.686 233.102 177.617 237.517 174.998Z" fill="#FF996C"/>
<path fill-rule="evenodd" clip-rule="evenodd" d="M231.306 191.088C231.231 191.163 233.701 191.687 236.769 189.666C238.266 188.693 239.837 186.972 240.511 184.577C241.185 182.257 240.96 179.413 239.538 176.944C238.939 175.971 238.266 175.073 237.443 174.399L237.143 174.175L236.769 174.324C232.653 176.345 229.21 178.515 226.89 180.236C224.57 181.958 223.298 183.155 223.373 183.23C223.598 183.529 229.061 179.338 237.293 175.447L236.619 175.372C237.293 175.971 237.966 176.719 238.415 177.617C239.688 179.787 239.912 182.257 239.313 184.352C238.79 186.448 237.443 188.02 236.17 188.992C233.551 190.938 231.231 190.789 231.306 191.088Z" fill="#202D34"/>
<path fill-rule="evenodd" clip-rule="evenodd" d="M297.088 85.4917C297.014 85.5665 297.612 86.3149 298.66 87.7368C299.708 89.1588 301.055 91.329 302.552 94.098C305.545 99.636 308.613 108.018 309.062 117.597C309.586 127.251 307.865 135.932 305.844 141.919C304.797 144.913 303.824 147.233 303.001 148.804C302.177 150.376 301.728 151.199 301.803 151.274C301.803 151.274 301.953 151.124 302.252 150.75C302.477 150.376 302.926 149.777 303.375 149.029C304.273 147.532 305.47 145.137 306.518 142.144C308.763 136.157 310.559 127.326 310.11 117.597C309.661 107.793 306.368 99.3367 303.225 93.7987C301.653 91.0297 300.157 88.9342 299.034 87.5123C298.51 86.8388 297.986 86.3149 297.687 85.9407C297.313 85.6414 297.088 85.4917 297.088 85.4917Z" fill="#2A4F5C"/>
<path fill-rule="evenodd" clip-rule="evenodd" d="M181.314 71.647C181.314 71.647 181.24 71.7218 181.165 72.0212C181.09 72.2457 180.94 72.6199 180.94 73.0689C180.79 73.9669 180.865 75.3889 181.015 77.1101C181.389 80.6275 182.512 85.492 184.457 91.4042L184.907 90.9551C179.967 89.9074 173.681 89.8326 167.619 92.6764C166.122 93.4248 164.7 94.4725 163.578 95.8196C162.455 97.1667 161.632 98.8879 161.407 100.684C161.183 102.48 161.407 104.351 162.006 106.147C162.605 107.943 163.728 109.515 164.925 110.937C166.197 112.359 167.544 113.706 169.191 114.754C170.762 115.801 172.409 116.55 173.905 117.448L173.756 116.699C171.585 119.393 170.313 122.686 169.864 125.83C169.34 128.973 169.49 132.116 170.014 134.96C170.538 137.804 171.361 140.423 172.558 142.668C173.756 144.913 175.253 146.784 176.899 148.206C180.192 151.05 183.634 152.098 185.88 152.547C187.002 152.771 187.9 152.921 188.574 152.921C189.172 152.996 189.472 152.996 189.472 152.921C189.472 152.846 188.199 152.771 185.954 152.172C183.709 151.574 180.416 150.526 177.348 147.682C175.776 146.26 174.354 144.464 173.232 142.294C172.109 140.124 171.286 137.504 170.837 134.735C170.388 131.966 170.238 128.973 170.762 125.904C171.211 122.836 172.483 119.843 174.504 117.223L174.878 116.774L174.354 116.475C172.783 115.577 171.136 114.828 169.64 113.855C168.143 112.883 166.796 111.61 165.598 110.263C164.401 108.916 163.428 107.419 162.829 105.773C162.231 104.127 162.006 102.405 162.231 100.759C162.605 97.3912 165.075 94.7719 167.844 93.4248C173.606 90.6558 179.743 90.6558 184.532 91.6287L185.131 91.7783L184.907 91.1796C182.886 85.3423 181.689 80.4778 181.165 77.0353C180.94 75.314 180.865 73.9669 180.865 73.0689C181.239 72.096 181.314 71.647 181.314 71.647Z" fill="#2A4F5C"/>
<path fill-rule="evenodd" clip-rule="evenodd" d="M340.195 335.3C340.195 335.3 352.768 368.678 357.707 389.558C361.524 405.947 364.966 447.782 344.386 467.314C323.88 486.847 286.237 488.119 270.745 486.173C252.335 483.853 126.458 450.027 126.458 450.027L207.433 379.455L340.195 335.3Z" fill="#202D34"/>
<path fill-rule="evenodd" clip-rule="evenodd" d="M142.848 316.366C142.848 316.366 170.538 256.646 179.443 245.121C185.655 237.113 192.016 232.698 192.016 232.698L214.991 309.481C214.991 309.481 183.784 360.221 163.054 359.249C136.187 358.126 142.848 316.366 142.848 316.366Z" fill="#7DB8FA"/>
<path fill-rule="evenodd" clip-rule="evenodd" d="M223.298 220.873L192.016 232.698L213.57 351.84L200.922 384.993C200.922 384.993 299.034 415.826 341.318 411.635C348.128 410.961 358.381 413.356 361.449 410.812C360.401 371.746 352.843 365.685 342.44 348.173L331.364 268.62L323.132 216.683L292.673 209.498C274.263 237.862 239.912 254.925 223.298 220.873Z" fill="#7DB8FA"/>
<path fill-rule="evenodd" clip-rule="evenodd" d="M316.995 215.41C316.995 215.41 345.958 216.383 356.809 253.652C364.143 278.648 373.124 308.733 375.818 334.702C376.566 341.886 373.573 352.438 370.429 355.881C366.837 359.772 306.518 403.702 306.518 403.702L262.962 386.34L324.629 332.756L312.43 270.79L316.995 215.41Z" fill="#7DB8FA"/>
<path fill-rule="evenodd" clip-rule="evenodd" d="M261.765 389.782C261.765 389.782 262.214 389.483 262.887 388.884C263.711 388.211 264.758 387.238 266.031 386.115C268.8 383.571 272.766 380.053 277.556 375.788C287.285 366.957 300.606 354.758 315.349 341.362C318.642 338.369 321.785 335.45 324.853 332.606L325.078 332.457L325.003 332.232C322.458 315.618 320.288 300.95 318.717 290.398C317.893 285.234 317.22 281.043 316.771 278.049C316.546 276.702 316.322 275.58 316.172 274.757C316.022 274.008 315.947 273.634 315.947 273.634C315.947 273.634 315.948 274.008 316.022 274.831C316.097 275.655 316.247 276.777 316.397 278.199C316.771 281.193 317.369 285.384 318.043 290.547C319.54 301.174 321.635 315.768 324.03 332.457L324.18 332.008C321.111 334.851 317.893 337.77 314.675 340.764C300.007 354.234 286.761 366.433 277.107 375.339C272.392 379.754 268.575 383.346 265.806 385.891C264.534 387.088 263.561 388.061 262.738 388.809C262.064 389.333 261.765 389.707 261.765 389.782Z" fill="#202D34"/>
<path fill-rule="evenodd" clip-rule="evenodd" d="M306.518 403.253C306.668 403.478 320.887 393.449 338.249 380.802C355.611 368.229 369.606 357.827 369.382 357.602C369.232 357.378 355.013 367.406 337.65 380.053C320.288 392.626 306.368 403.029 306.518 403.253Z" fill="#202D34"/>
<path fill-rule="evenodd" clip-rule="evenodd" d="M314.301 257.768C314.526 257.768 314.226 255.448 314.975 251.931C315.723 248.414 317.743 243.774 321.186 239.433C324.554 235.092 328.67 232.024 331.888 230.527C335.181 229.031 337.501 229.18 337.501 228.956C337.501 228.881 336.977 228.881 335.929 228.881C334.882 228.956 333.385 229.18 331.663 229.929C328.221 231.276 323.88 234.344 320.438 238.834C316.845 243.25 314.9 248.114 314.301 251.781C314.076 252.679 314.077 253.503 314.002 254.251C313.927 254.999 313.927 255.598 314.002 256.122C314.151 257.244 314.226 257.768 314.301 257.768Z" fill="#202D34"/>
<path fill-rule="evenodd" clip-rule="evenodd" d="M205.337 306.039C205.263 306.039 205.337 306.712 205.487 307.91C205.637 309.107 205.861 310.754 206.235 312.849C206.909 317.04 207.882 322.728 209.004 329.089C210.127 335.45 211.25 341.138 212.073 345.254C212.522 347.349 212.821 348.996 213.12 350.118C213.42 351.241 213.569 351.914 213.644 351.914C213.719 351.914 213.644 351.241 213.495 350.043C213.345 348.846 213.12 347.2 212.746 345.104C212.073 340.913 211.1 335.225 209.977 328.864C208.855 322.503 207.732 316.815 206.909 312.699C206.46 310.604 206.161 308.957 205.861 307.835C205.562 306.637 205.337 306.039 205.337 306.039Z" fill="#202D34"/>
<path fill-rule="evenodd" clip-rule="evenodd" d="M144.719 312.999C144.868 313.074 146.515 310.828 149.508 307.536C152.502 304.168 156.767 299.678 161.856 295.038C166.871 290.398 171.66 286.431 175.252 283.737C178.845 281.043 181.165 279.546 181.09 279.397C181.09 279.322 180.416 279.621 179.294 280.295C178.171 280.893 176.674 281.866 174.803 283.213C171.061 285.758 166.197 289.724 161.108 294.364C156.094 299.079 151.753 303.644 148.909 307.161C147.488 308.883 146.365 310.379 145.691 311.427C145.018 312.325 144.644 312.924 144.719 312.999Z" fill="#202D34"/>
<path fill-rule="evenodd" clip-rule="evenodd" d="M348.652 333.804C348.727 333.729 347.679 332.606 345.658 331.409C343.638 330.212 340.42 328.939 336.678 328.715C333.011 328.49 329.643 329.014 327.473 330.137C325.302 331.259 324.255 332.382 324.329 332.382C324.404 332.532 325.602 331.633 327.772 330.735C329.867 329.837 333.085 329.463 336.678 329.613C340.195 329.837 343.263 330.885 345.359 331.933C347.379 333.055 348.577 333.953 348.652 333.804Z" fill="#202D34"/>
<path fill-rule="evenodd" clip-rule="evenodd" d="M320.737 307.386C320.812 307.536 323.282 306.189 327.547 304.542C331.738 302.821 337.725 300.875 344.61 299.753C351.421 298.63 357.782 298.555 362.272 298.854C366.837 299.079 369.606 299.603 369.606 299.378C369.606 299.304 368.933 299.154 367.661 298.854C366.388 298.555 364.592 298.331 362.272 298.106C357.707 297.657 351.346 297.657 344.386 298.78C337.426 299.902 331.439 301.998 327.248 303.869C325.153 304.767 323.506 305.665 322.384 306.263C321.336 306.937 320.737 307.311 320.737 307.386Z" fill="#202D34"/>
<path fill-rule="evenodd" clip-rule="evenodd" d="M315.124 271.988C315.199 272.137 317.294 270.491 320.887 268.321C324.479 266.15 329.718 263.531 335.854 261.735C341.991 259.939 347.828 259.265 352.019 259.19C356.21 259.116 358.829 259.34 358.829 259.19C358.829 259.116 358.156 258.966 357.033 258.816C355.836 258.667 354.115 258.517 352.019 258.517C347.754 258.442 341.841 258.966 335.63 260.837C329.418 262.708 324.105 265.402 320.587 267.797C318.791 268.994 317.444 270.042 316.546 270.79C315.498 271.539 315.049 271.988 315.124 271.988Z" fill="#202D34"/>
<path fill-rule="evenodd" clip-rule="evenodd" d="M317.145 339.042C317.145 339.192 319.914 339.641 324.255 340.988C328.595 342.26 334.507 344.655 340.42 348.173C343.413 349.969 346.032 351.915 348.427 353.785C350.672 355.731 352.693 357.602 354.19 359.249C357.258 362.616 358.755 365.011 358.905 364.936C358.979 364.936 358.605 364.263 357.932 363.215C357.632 362.691 357.183 362.018 356.585 361.269C356.061 360.521 355.462 359.698 354.639 358.8C353.217 357.003 351.196 355.133 348.951 353.037C346.631 351.091 343.937 349.071 340.869 347.275C334.807 343.608 328.82 341.362 324.33 340.24C323.207 339.94 322.234 339.716 321.336 339.566C320.438 339.342 319.69 339.267 319.016 339.192C317.893 338.968 317.22 338.968 317.145 339.042Z" fill="#202D34"/>
<path fill-rule="evenodd" clip-rule="evenodd" d="M209.828 361.568C209.828 361.568 210.127 361.568 210.726 361.568C211.399 361.493 212.297 361.419 213.27 361.269C215.665 360.97 218.808 360.595 222.625 360.146C230.557 359.248 241.484 358.051 253.608 357.377C265.731 356.704 276.733 356.629 284.665 356.928C288.632 357.078 291.85 357.153 294.095 357.303C295.143 357.377 295.966 357.377 296.639 357.452C297.238 357.452 297.537 357.452 297.537 357.452C297.537 357.452 297.238 357.377 296.639 357.303C295.966 357.228 295.068 357.153 294.095 357.003C291.85 356.779 288.632 356.479 284.665 356.33C276.733 355.881 265.656 355.806 253.533 356.554C241.409 357.228 230.408 358.5 222.55 359.623C218.584 360.146 215.44 360.67 213.195 361.044C212.222 361.194 211.324 361.419 210.651 361.493C210.127 361.493 209.828 361.568 209.828 361.568Z" fill="#202D34"/>
<path fill-rule="evenodd" clip-rule="evenodd" d="M208.929 326.694C208.929 326.694 209.304 326.694 210.052 326.619C210.875 326.47 211.998 326.32 213.345 326.17C216.338 325.721 220.38 325.123 225.394 324.374C235.572 322.878 249.641 321.007 265.282 319.51C280.923 318.013 295.068 317.115 305.321 316.591C310.335 316.367 314.451 316.142 317.519 315.992C318.866 315.918 319.989 315.843 320.812 315.843C321.56 315.768 321.935 315.768 321.935 315.693C321.935 315.693 321.56 315.618 320.812 315.618C319.914 315.618 318.866 315.618 317.519 315.618C314.675 315.618 310.484 315.693 305.321 315.843C295.068 316.142 280.849 316.965 265.208 318.462C249.567 319.959 235.497 321.979 225.319 323.626C220.23 324.449 216.114 325.198 213.345 325.721C211.998 326.021 210.95 326.17 210.127 326.395C209.304 326.545 208.929 326.694 208.929 326.694Z" fill="#202D34"/>
<path fill-rule="evenodd" clip-rule="evenodd" d="M212.821 284.785C212.821 284.785 213.195 284.785 213.869 284.635C214.617 284.485 215.665 284.186 216.862 283.961C219.407 283.288 223.149 282.465 227.789 281.492C237.069 279.546 249.941 277.376 264.309 276.328C278.678 275.28 291.775 275.505 301.204 276.104C305.919 276.403 309.736 276.702 312.355 276.927C313.553 277.002 314.6 277.151 315.424 277.151C316.097 277.226 316.471 277.226 316.471 277.151C316.471 277.151 316.097 277.076 315.424 276.927C314.6 276.777 313.628 276.702 312.43 276.478C309.811 276.104 305.994 275.729 301.279 275.355C291.85 274.607 278.678 274.233 264.235 275.28C249.791 276.328 236.844 278.648 227.639 280.743C222.999 281.791 219.332 282.764 216.787 283.512C215.59 283.887 214.617 284.186 213.869 284.411C213.12 284.635 212.746 284.785 212.821 284.785Z" fill="#202D34"/>
<path fill-rule="evenodd" clip-rule="evenodd" d="M268.725 236.664C268.725 236.814 271.644 236.664 276.209 236.589C280.849 236.515 287.285 236.589 294.319 237.113C301.354 237.637 307.715 238.61 312.28 239.358C316.846 240.182 319.689 240.78 319.689 240.631C319.689 240.556 319.016 240.331 317.744 239.957C316.471 239.583 314.675 239.134 312.355 238.685C307.79 237.712 301.429 236.664 294.319 236.14C287.21 235.617 280.774 235.617 276.134 235.916C273.814 236.066 271.943 236.215 270.671 236.365C269.473 236.515 268.725 236.589 268.725 236.664Z" fill="#202D34"/>
<path fill-rule="evenodd" clip-rule="evenodd" d="M176.151 249.686C176.001 249.985 181.614 252.455 187.75 256.646C193.962 260.837 198.377 265.028 198.602 264.803C198.677 264.729 197.704 263.531 195.908 261.885C194.112 260.163 191.492 257.993 188.349 255.898C185.206 253.802 182.212 252.156 179.967 251.108C177.647 249.985 176.225 249.536 176.151 249.686Z" fill="#202D34"/>
<path fill-rule="evenodd" clip-rule="evenodd" d="M159.162 282.615C159.087 282.914 161.632 283.587 164.7 284.635C167.769 285.683 170.163 286.656 170.313 286.431C170.463 286.207 168.143 284.785 165.074 283.737C161.856 282.615 159.237 282.315 159.162 282.615Z" fill="#202D34"/>
<path fill-rule="evenodd" clip-rule="evenodd" d="M157.142 299.678C157.067 299.678 157.142 300.426 157.441 301.848C157.516 302.522 157.74 303.42 157.965 304.318C158.264 305.291 158.489 306.413 158.938 307.536C159.686 309.931 160.884 312.7 162.455 315.618C164.027 318.537 166.047 321.605 168.517 324.599C170.987 327.517 173.681 330.062 176.3 332.157C178.919 334.178 181.464 335.899 183.634 337.022C184.682 337.695 185.804 338.07 186.703 338.519C187.601 338.968 188.424 339.267 189.097 339.491C190.444 339.94 191.118 340.24 191.193 340.165C191.268 340.015 188.349 338.893 184.083 336.423C181.913 335.151 179.518 333.504 176.974 331.409C174.429 329.314 171.885 326.769 169.415 323.925C167.02 321.007 165 318.013 163.353 315.169C161.782 312.325 160.509 309.631 159.686 307.236C157.815 302.671 157.291 299.603 157.142 299.678Z" fill="#202D34"/>
<path fill-rule="evenodd" clip-rule="evenodd" d="M285.189 369.726C285.114 369.876 287.509 370.624 291.326 371.896C295.143 373.243 300.306 375.189 305.77 377.883C311.308 380.578 316.097 383.347 319.465 385.517C322.833 387.687 324.928 389.109 325.003 388.959C325.078 388.885 324.554 388.51 323.731 387.762C322.833 387.014 321.56 386.041 319.914 384.918C316.621 382.598 311.831 379.68 306.293 376.985C300.755 374.291 295.517 372.42 291.625 371.223C289.679 370.624 288.108 370.25 286.985 369.951C285.863 369.801 285.189 369.726 285.189 369.726Z" fill="#202D34"/>
<path fill-rule="evenodd" clip-rule="evenodd" d="M326.724 394.272C326.724 394.422 328.52 394.946 331.514 395.47C334.507 395.994 338.698 396.443 343.338 396.817C347.978 397.116 352.169 397.341 355.163 397.49C358.231 397.565 360.027 397.79 360.102 397.64C360.102 397.491 358.306 397.041 355.237 396.742C352.244 396.443 348.053 396.143 343.413 395.844C338.773 395.545 334.657 395.171 331.589 394.796C328.595 394.497 326.724 394.123 326.724 394.272Z" fill="#202D34"/>
<path opacity="0.3" fill-rule="evenodd" clip-rule="evenodd" d="M318.717 288.153L321.261 331.409C321.261 331.409 287.135 356.255 281.522 365.236C275.909 374.216 277.556 375.788 277.556 375.788L324.629 332.457L318.717 288.153Z" fill="black"/>
<path fill-rule="evenodd" clip-rule="evenodd" d="M119.274 484.752L151.604 452.497L181.539 482.058L143.072 510.795L119.274 484.752Z" fill="#FFBE9B"/>
<path fill-rule="evenodd" clip-rule="evenodd" d="M122.492 476.744L120.546 478.615C120.546 478.615 76.1671 458.858 69.7311 464.471L132.37 528.382L152.801 506.679C139.106 501.441 128.853 492.011 122.492 476.744Z" fill="#703758"/>
<path fill-rule="evenodd" clip-rule="evenodd" d="M132.371 528.308L137.31 523.069L75.4938 463.723C75.4938 463.723 71.4525 462.076 69.806 464.396L132.371 528.308Z" fill="#DFDFDF"/>
<path fill-rule="evenodd" clip-rule="evenodd" d="M113.437 486.548C113.511 486.623 114.11 486.324 114.858 485.5C115.607 484.677 116.43 483.405 116.804 481.758C117.179 480.112 117.104 478.615 116.804 477.567C116.505 476.52 116.131 475.921 116.056 475.996C115.757 476.071 116.655 478.54 115.831 481.534C115.158 484.602 113.212 486.323 113.437 486.548Z" fill="#202D34"/>
<path fill-rule="evenodd" clip-rule="evenodd" d="M117.478 489.167C117.627 489.392 119.723 487.446 120.471 484.228C121.294 481.01 120.321 478.316 120.097 478.465C119.798 478.54 120.321 481.085 119.498 484.003C118.825 486.997 117.253 489.018 117.478 489.167Z" fill="#202D34"/>
<path fill-rule="evenodd" clip-rule="evenodd" d="M107.075 483.105C107.15 483.33 109.32 482.357 110.742 479.962C112.164 477.567 112.015 475.172 111.79 475.247C111.491 475.247 111.266 477.343 109.919 479.513C108.647 481.609 106.926 482.881 107.075 483.105Z" fill="#202D34"/>
<path fill-rule="evenodd" clip-rule="evenodd" d="M115.307 476.52C115.307 476.594 116.655 476.52 118.451 475.472C119.349 474.948 120.322 474.2 121.295 473.227C121.818 472.778 122.267 472.254 122.791 471.73C123.016 471.505 123.315 471.206 123.614 470.832C123.839 470.458 124.063 469.859 123.839 469.335C123.614 468.736 122.941 468.437 122.417 468.512C121.893 468.587 121.519 468.736 121.145 468.961C120.471 469.335 119.873 469.784 119.349 470.233C118.301 471.131 117.553 472.179 117.029 473.077C115.981 474.948 115.906 476.22 116.056 476.22C116.206 476.295 116.505 475.023 117.627 473.376C118.151 472.553 118.975 471.655 119.947 470.832C120.471 470.458 120.995 470.083 121.594 469.709C122.193 469.335 122.866 469.335 122.866 469.634C123.016 470.009 122.641 470.533 122.118 471.056C121.594 471.58 121.145 472.029 120.696 472.553C119.798 473.451 118.9 474.274 118.076 474.798C116.505 476.071 115.307 476.37 115.307 476.52Z" fill="#202D34"/>
<path fill-rule="evenodd" clip-rule="evenodd" d="M115.083 475.921C115.008 475.921 115.083 476.145 115.158 476.445L115.232 476.744L115.382 476.445C115.756 475.846 116.355 474.648 116.655 472.927C116.804 472.029 116.954 471.056 116.954 470.009C116.954 469.485 116.879 468.886 116.804 468.362C116.729 468.063 116.729 467.763 116.505 467.389C116.28 467.015 115.981 466.716 115.532 466.641C114.858 466.491 114.334 467.015 114.185 467.464C113.96 467.913 113.96 468.212 113.885 468.587C113.736 469.26 113.736 469.934 113.736 470.607C113.736 471.879 113.96 473.077 114.26 473.975C114.858 475.846 115.607 476.819 115.756 476.744C115.906 476.669 115.307 475.621 114.933 473.825C114.709 472.927 114.634 471.805 114.634 470.607C114.634 470.009 114.709 469.41 114.858 468.736C114.933 468.063 115.232 467.464 115.382 467.614C115.906 467.689 115.981 469.185 116.056 470.083C116.131 471.131 116.056 472.029 115.906 472.852C115.682 474.499 115.233 475.771 115.083 476.37H115.382C115.232 475.996 115.158 475.846 115.083 475.921Z" fill="#202D34"/>
<path fill-rule="evenodd" clip-rule="evenodd" d="M204.364 393.225C215.74 393.749 136.861 380.502 124.288 379.155C96.3734 376.162 67.8601 395.769 63.5943 413.805C58.655 434.76 85.7464 457.286 98.843 462.076C106.925 465.069 190.444 486.922 190.444 486.922L207.283 408.567L204.364 393.225Z" fill="#202D34"/>
<path fill-rule="evenodd" clip-rule="evenodd" d="M209.603 496.875L170.762 472.852L192.615 436.93L229.51 467.763L209.603 496.875Z" fill="#FFBE9B"/>
<path fill-rule="evenodd" clip-rule="evenodd" d="M201.071 495.603L203.316 497.025C203.316 497.025 194.336 544.772 201.296 549.786L249.042 474.125L223.223 459.232C221.278 473.751 214.467 485.874 201.071 495.603Z" fill="#703758"/>
<path fill-rule="evenodd" clip-rule="evenodd" d="M248.967 474.05L242.756 470.458L199.275 544.323C199.275 544.323 198.602 548.588 201.221 549.711L248.967 474.05Z" fill="#DFDFDF"/>
<path fill-rule="evenodd" clip-rule="evenodd" d="M212.746 502.189C212.821 502.114 212.372 501.59 211.399 501.066C210.501 500.542 209.004 500.019 207.358 500.019C205.711 500.019 204.215 500.468 203.242 500.917C202.269 501.441 201.82 501.89 201.895 502.039C202.044 502.264 204.289 500.917 207.358 500.992C210.351 500.917 212.522 502.413 212.746 502.189Z" fill="#202D34"/>
<path fill-rule="evenodd" clip-rule="evenodd" d="M214.393 497.624C214.542 497.399 212.222 495.828 208.855 495.828C205.487 495.753 203.167 497.324 203.316 497.474C203.466 497.698 205.786 496.726 208.855 496.726C211.923 496.8 214.243 497.923 214.393 497.624Z" fill="#202D34"/>
<path fill-rule="evenodd" clip-rule="evenodd" d="M210.8 509.149C211.025 508.999 209.528 507.128 206.834 506.305C204.14 505.482 201.895 506.155 201.969 506.38C202.044 506.679 204.14 506.454 206.534 507.203C209.004 507.951 210.651 509.373 210.8 509.149Z" fill="#202D34"/>
<path fill-rule="evenodd" clip-rule="evenodd" d="M202.493 502.638C202.568 502.638 202.194 501.291 200.772 499.794C200.024 499.045 199.126 498.297 197.928 497.474C197.33 497.1 196.731 496.726 196.132 496.351C195.833 496.202 195.533 495.977 195.084 495.827C194.635 495.678 194.037 495.603 193.588 495.977C193.064 496.276 192.914 497.1 193.139 497.549C193.288 497.998 193.588 498.372 193.812 498.671C194.336 499.195 194.86 499.719 195.459 500.093C196.581 500.916 197.779 501.44 198.752 501.74C200.772 502.338 202.044 502.114 202.044 501.964C202.044 501.814 200.772 501.74 198.976 501.066C198.078 500.692 197.03 500.168 195.983 499.42C195.459 499.045 195.01 498.596 194.486 498.073C194.037 497.624 193.812 496.95 194.112 496.8C194.486 496.576 195.084 496.8 195.683 497.249C196.282 497.624 196.881 497.998 197.479 498.297C198.602 498.971 199.575 499.644 200.323 500.318C201.745 501.59 202.344 502.713 202.493 502.638Z" fill="#202D34"/>
<path fill-rule="evenodd" clip-rule="evenodd" d="M201.97 503.012C201.97 503.087 202.194 503.012 202.493 502.788L202.718 502.638L202.418 502.563C201.82 502.339 200.473 502.039 198.677 502.114C197.779 502.114 196.806 502.264 195.758 502.563C195.234 502.713 194.71 502.862 194.186 503.087C193.887 503.162 193.588 503.311 193.288 503.611C192.989 503.91 192.764 504.284 192.764 504.733C192.764 505.407 193.438 505.781 193.812 505.856C194.261 505.931 194.635 505.931 195.01 505.931C195.683 505.856 196.357 505.781 197.03 505.631C198.302 505.332 199.35 504.883 200.173 504.359C201.82 503.386 202.568 502.339 202.493 502.339C202.419 502.189 201.52 503.012 199.799 503.761C198.976 504.135 197.928 504.509 196.731 504.733C196.132 504.883 195.534 504.958 194.86 504.958C194.186 505.033 193.513 504.883 193.588 504.659C193.513 504.135 195.009 503.686 195.833 503.461C196.806 503.162 197.704 503.012 198.602 502.937C200.248 502.788 201.595 502.862 202.194 502.937L202.119 502.713C202.044 502.788 201.895 502.937 201.97 503.012Z" fill="#202D34"/>
<path fill-rule="evenodd" clip-rule="evenodd" d="M360.027 420.316C354.339 414.329 334.881 399.437 314.9 390.68C295.592 382.224 248.069 369.427 236.619 371.597C212.596 376.162 124.063 472.927 124.063 472.927L162.081 504.06C162.081 504.06 182.063 491.562 214.842 472.628L243.953 453.993C243.953 453.993 250.913 479.363 272.99 486.697L360.027 420.316Z" fill="#202D34"/>
<path fill-rule="evenodd" clip-rule="evenodd" d="M273.065 486.772C273.065 486.772 272.841 486.623 272.392 486.473C271.868 486.248 271.194 485.949 270.296 485.575C269.323 485.275 268.276 484.602 267.004 483.928C265.656 483.255 264.309 482.282 262.663 481.159C259.595 478.839 256.077 475.547 252.784 470.981C249.492 466.491 246.423 460.729 244.253 453.918L244.103 453.544L243.804 453.769C238.715 456.987 233.177 460.504 227.19 464.321C221.203 468.063 214.842 472.328 207.807 476.22C193.812 484.303 178.321 493.433 161.856 503.611H162.38C150.556 493.882 137.759 483.405 124.438 472.403L124.512 473.077C135.139 461.552 146.29 449.877 157.965 437.978C169.565 426.228 181.015 414.928 192.465 404.376C198.153 399.137 203.915 394.048 209.678 389.258C215.44 384.469 221.203 379.979 227.265 376.237C230.258 374.441 233.401 372.644 236.694 371.896C237.517 371.746 238.341 371.746 239.239 371.597C240.062 371.597 240.96 371.597 241.783 371.672C243.505 371.746 245.151 371.971 246.872 372.121C253.533 373.019 260.044 374.291 266.18 375.713C278.529 378.632 289.979 381.85 300.231 385.217C305.32 386.939 310.185 388.66 314.675 390.606C319.165 392.551 323.207 394.647 327.023 396.667C334.507 400.784 340.719 404.9 345.658 408.342C350.597 411.86 354.264 414.778 356.659 416.799C357.857 417.847 358.755 418.67 359.353 419.194C359.952 419.792 360.252 420.017 360.252 420.017C360.252 420.017 359.129 418.745 356.809 416.649C354.414 414.554 350.822 411.56 345.883 407.968C340.943 404.451 334.807 400.335 327.323 396.144C323.581 394.048 319.465 391.953 314.975 390.007C310.484 388.061 305.62 386.34 300.531 384.544C290.278 381.101 278.903 377.808 266.48 374.89C260.268 373.468 253.832 372.121 247.097 371.223C245.375 371.073 243.729 370.848 241.933 370.774C241.035 370.774 240.212 370.699 239.314 370.699C238.415 370.774 237.517 370.848 236.619 370.998C233.102 371.746 229.959 373.617 226.89 375.414C220.754 379.155 214.991 383.721 209.154 388.51C203.391 393.3 197.629 398.389 191.941 403.627C180.491 414.18 168.966 425.48 157.366 437.23C145.691 449.054 134.541 460.803 123.914 472.328L123.539 472.703L123.914 473.002C137.235 483.928 150.107 494.406 161.931 504.135L162.156 504.359L162.455 504.209C178.919 494.031 194.336 484.901 208.331 476.744C215.366 472.852 221.727 468.512 227.714 464.77C233.701 460.953 239.239 457.361 244.328 454.143L243.879 453.993C248.369 467.838 256.377 476.744 262.588 481.234C264.235 482.282 265.582 483.33 266.929 483.928C268.276 484.602 269.323 485.201 270.296 485.5C271.194 485.874 271.943 486.099 272.467 486.323C272.766 486.697 273.065 486.772 273.065 486.772Z" fill="#2A4F5C"/>
<path fill-rule="evenodd" clip-rule="evenodd" d="M119.124 386.564C119.124 386.639 120.097 386.864 121.818 387.238C123.764 387.612 126.234 388.136 129.227 388.734C132.37 389.408 136.037 390.156 140.153 391.054C144.27 392.027 148.685 393.15 153.25 394.871C157.815 396.518 161.931 398.538 165.673 400.484C169.415 402.43 172.708 404.301 175.477 405.872C178.096 407.369 180.341 408.641 181.988 409.614C183.559 410.512 184.383 410.961 184.457 410.887C184.457 410.812 183.709 410.288 182.212 409.315C180.716 408.342 178.545 406.92 175.851 405.274C173.157 403.627 169.864 401.681 166.122 399.661C162.38 397.64 158.189 395.62 153.624 393.973C149.059 392.327 144.494 391.129 140.378 390.231C136.262 389.333 132.52 388.66 129.377 388.061C126.234 387.537 123.689 387.088 121.893 386.864C120.097 386.564 119.124 386.489 119.124 386.564Z" fill="#2A4F5C"/>
<path fill-rule="evenodd" clip-rule="evenodd" d="M271.793 423.983C271.569 423.983 271.943 426.827 269.847 430.644C268.874 432.515 267.228 434.535 265.133 436.481C263.037 438.427 260.493 440.298 257.873 442.393C252.635 446.509 247.92 450.251 244.477 453.02C242.756 454.367 241.409 455.565 240.511 456.313C239.613 457.136 239.089 457.585 239.164 457.66C239.239 457.735 239.763 457.361 240.81 456.612C241.783 455.939 243.205 454.891 245.001 453.544C248.519 450.925 253.308 447.258 258.547 443.141C261.166 441.046 263.711 439.175 265.806 437.154C267.901 435.134 269.548 432.964 270.521 430.943C271.494 428.922 271.868 427.126 271.943 425.929C272.018 424.657 271.868 423.983 271.793 423.983Z" fill="#2A4F5C"/>
<path fill-rule="evenodd" clip-rule="evenodd" d="M292.673 209.648C292.673 209.648 293.122 209.797 294.02 210.097C294.993 210.321 296.34 210.695 297.912 211.144C301.429 212.043 306.293 213.24 312.355 214.662C318.417 216.233 325.901 217.356 333.085 221.472C340.27 225.438 346.93 232.024 351.346 240.406C353.591 244.597 355.162 248.938 356.36 253.278C357.707 257.544 359.054 261.735 360.326 265.701C362.796 273.634 364.891 280.744 366.538 286.806C368.184 292.867 369.307 297.807 370.13 301.174C370.504 302.821 370.804 304.093 371.103 305.066C371.328 305.964 371.477 306.413 371.477 306.413C371.477 306.413 371.477 305.889 371.253 304.991C371.028 304.018 370.804 302.671 370.504 301.025C369.831 297.582 368.708 292.643 367.211 286.581C365.64 280.519 363.619 273.335 361.224 265.402C360.027 261.435 358.68 257.245 357.333 252.979C356.21 248.638 354.564 244.148 352.319 239.882C347.828 231.351 341.018 224.615 333.609 220.649C329.942 218.553 326.2 217.281 322.608 216.233C319.016 215.335 315.648 214.587 312.655 213.913C306.593 212.566 301.728 211.444 298.136 210.695C296.49 210.321 295.217 210.097 294.17 209.872C293.122 209.723 292.673 209.648 292.673 209.648Z" fill="#202D34"/>
<path opacity="0.3" fill-rule="evenodd" clip-rule="evenodd" d="M210.576 287.853C211.998 284.86 213.569 281.791 216.114 279.771C217.985 278.274 220.23 277.451 222.325 276.253C224.421 275.056 226.441 273.484 227.115 271.164L242.756 267.198C245.151 268.545 245.001 272.062 243.729 274.457C242.382 276.852 240.212 278.648 239.089 281.118C237.667 284.261 238.116 288.078 236.395 291.071C234.823 293.915 231.68 295.487 228.612 296.46C225.543 297.432 222.251 297.956 219.407 299.378C209.304 304.392 206.759 319.061 196.506 323.701C200.398 311.352 205.113 299.378 210.576 287.853Z" fill="black"/>
<path fill-rule="evenodd" clip-rule="evenodd" d="M215.141 245.196C215.141 245.196 224.87 240.631 226.816 240.855C228.761 241.08 241.185 247.067 241.185 247.067C241.185 247.067 239.538 253.129 234.898 251.557C230.333 249.911 215.141 245.196 215.141 245.196Z" fill="#FFBE9B"/>
<path fill-rule="evenodd" clip-rule="evenodd" d="M179.593 284.037C179.518 283.662 197.479 265.776 197.479 265.776C197.479 265.776 209.453 248.563 210.351 247.591C212.222 245.645 217.012 244.447 217.012 244.447C217.012 244.447 236.021 243.4 240.286 246.393C241.858 247.516 242.756 248.713 243.205 249.911C244.103 252.156 243.055 254.7 240.735 255.823L240.212 256.047C240.212 256.047 244.328 255.972 245.001 261.585C245.45 265.926 242.083 267.348 242.083 267.348C243.43 270.266 241.783 273.035 240.586 274.532C239.912 275.355 239.014 275.954 238.041 276.253C238.041 276.253 232.204 286.282 229.585 288.302C226.965 290.323 214.243 293.316 214.243 293.316L198.153 316.591C185.73 312.7 179.668 284.785 179.593 284.037Z" fill="#FFBE9B"/>
<path fill-rule="evenodd" clip-rule="evenodd" d="M223.224 256.197C223.224 256.496 227.04 256.421 231.755 256.421C236.47 256.421 240.287 256.346 240.287 256.122C240.287 255.897 236.47 255.448 231.755 255.448C227.04 255.448 223.224 255.972 223.224 256.197Z" fill="#FF996C"/>
<path fill-rule="evenodd" clip-rule="evenodd" d="M224.421 267.273C224.421 267.572 228.387 267.497 233.177 267.572C238.041 267.572 241.933 267.572 241.933 267.273C241.933 267.048 238.041 266.599 233.177 266.524C228.312 266.599 224.421 267.048 224.421 267.273Z" fill="#FF996C"/>
<path fill-rule="evenodd" clip-rule="evenodd" d="M225.394 276.328C225.468 276.627 228.312 276.627 231.905 276.627C235.497 276.552 238.415 276.253 238.415 276.029C238.415 275.729 235.497 275.579 231.905 275.654C228.312 275.654 225.319 276.103 225.394 276.328Z" fill="#FF996C"/>
<path fill-rule="evenodd" clip-rule="evenodd" d="M220.08 244.373C220.08 244.522 221.577 244.597 224.047 244.747C226.89 244.897 230.108 245.121 233.626 245.346C234.599 245.42 235.497 245.42 236.32 245.57C237.143 245.645 238.041 245.72 238.715 245.944C240.212 246.393 241.334 247.291 242.008 248.189C243.355 250.135 243.13 251.782 243.355 251.782C243.429 251.782 243.504 251.407 243.504 250.659C243.43 249.985 243.28 248.863 242.606 247.815C241.933 246.693 240.661 245.645 239.014 245.121C238.191 244.822 237.293 244.747 236.395 244.597C235.497 244.447 234.599 244.447 233.626 244.373C226.217 243.774 220.08 244.073 220.08 244.373Z" fill="#FF996C"/>
<defs>
<linearGradient id="paint0_linear_235_87" x1="232.5" y1="0" x2="232.5" y2="382" gradientUnits="userSpaceOnUse">
<stop stop-color="#FF58E0"/>
<stop offset="0.571783" stop-color="#FF58E0" stop-opacity="0.496828"/>
<stop offset="1" stop-color="#FF58E0" stop-opacity="0"/>
</linearGradient>
</defs>
</svg>
