<svg width="558" height="701" viewBox="0 0 558 701" fill="none" xmlns="http://www.w3.org/2000/svg">
<path fill-rule="evenodd" clip-rule="evenodd" d="M180.389 12.9686C239.598 -19.1733 311.546 18.2851 369.059 46.2343C415.047 68.5832 435.449 115.792 468.564 153.012C499.885 188.217 552.979 211.169 557.592 258.139C562.21 305.165 517.86 344.356 491.486 386.434C465.342 428.146 448.588 477.744 404.468 502.443C358.657 528.088 304.366 523.735 253.084 519.892C196.977 515.688 139.432 510.971 95.9319 479.325C47.6197 444.179 -1.25557 395.793 0.694729 336.283C2.62181 277.482 75.7511 242.753 105.435 189.343C137.533 131.592 120.478 45.4912 180.389 12.9686Z" fill="#2B8AFF"/>
<path fill-rule="evenodd" clip-rule="evenodd" d="M180.389 12.9686C239.598 -19.1733 311.546 18.2851 369.059 46.2343C415.047 68.5832 435.449 115.792 468.564 153.012C499.885 188.217 552.979 211.169 557.592 258.139C562.21 305.165 517.86 344.356 491.486 386.434C465.342 428.146 448.588 477.744 404.468 502.443C358.657 528.088 304.366 523.735 253.084 519.892C196.977 515.688 139.432 510.971 95.9319 479.325C47.6197 444.179 -1.25557 395.793 0.694729 336.283C2.62181 277.482 75.7511 242.753 105.435 189.343C137.533 131.592 120.478 45.4912 180.389 12.9686Z" fill="url(#paint0_linear_235_87)"/>
<g filter="url(#filter0_bd_235_87)">
<path fill-rule="evenodd" clip-rule="evenodd" d="M374.308 76.3401C392.661 82.7634 405.649 100.239 410.167 119.225C413.649 134.244 412.802 151.058 422.12 163.338C424.473 166.455 427.579 169.573 427.579 173.54C427.579 177.602 423.908 181.002 419.955 181.569C416.002 182.136 411.955 180.436 408.849 177.885C408.755 183.931 403.955 189.504 398.026 190.543C392.096 191.582 385.696 187.992 383.532 182.325C381.367 189.126 370.638 189.315 365.932 183.836C361.32 178.357 361.696 171.367 360.379 164.283C358.684 154.837 361.32 144.163 362.449 136.134C364.143 124.137 358.308 98.3494 333.743 110.063L323.861 94.0987C332.99 77.0014 355.955 69.9168 374.308 76.3401Z" fill="black"/>
<path fill-rule="evenodd" clip-rule="evenodd" d="M325.272 83.2357C328.567 81.6299 332.614 82.1966 335.72 84.0858C338.92 85.975 341.273 88.9033 343.249 91.926C345.696 95.7045 347.578 99.6718 349.084 103.923C349.649 105.623 350.214 107.512 349.555 109.212C348.708 111.763 345.79 112.896 343.343 113.746L342.402 112.518C338.92 105.528 333.555 99.5773 327.061 95.3266C324.896 93.9097 322.355 92.3984 321.696 89.9424C320.943 87.203 322.825 84.4637 325.272 83.2357Z" fill="#E2B549"/>
<path fill-rule="evenodd" clip-rule="evenodd" d="M182.496 109.779C166.966 121.398 159.719 142.085 161.131 161.449C162.26 176.752 168.095 192.621 162.919 207.074C161.601 210.758 159.531 214.63 160.754 218.409C161.978 222.282 166.495 224.36 170.448 223.793C174.401 223.132 177.79 220.298 179.954 216.897C181.837 222.66 188.049 226.532 194.072 225.777C200.002 225.021 205.084 219.637 205.46 213.591C209.602 219.448 219.86 216.425 222.684 209.813C225.507 203.201 222.966 195.549 219.672 189.221C216.284 182.892 212.049 176.752 211.013 169.667C209.319 157.671 204.331 126.026 231.343 129.805L235.955 111.574C222.119 97.9717 198.025 98.1607 182.496 109.779Z" fill="black"/>
<path fill-rule="evenodd" clip-rule="evenodd" d="M290.731 79.2681C311.06 80.4016 330.26 92.3981 341.272 109.684C352.284 126.971 355.013 148.98 349.743 168.722C344.472 188.464 331.484 205.845 314.637 217.369C308.143 221.809 299.484 225.398 292.802 221.242C289.602 219.259 287.625 215.858 285.743 212.646C267.296 180.813 248.848 148.98 230.495 117.147L290.731 79.2681Z" fill="black"/>
<path fill-rule="evenodd" clip-rule="evenodd" d="M164.99 132.638C165.084 126.782 169.884 121.775 175.343 119.508C180.802 117.336 186.825 117.336 192.755 117.336C189.649 110.157 186.449 102.694 186.355 94.7596C186.261 86.9194 190.119 78.4179 197.366 75.4896C203.672 72.9392 210.825 75.1118 216.849 78.1346C222.872 81.1573 228.52 85.2191 235.108 86.9194C252.143 91.2646 268.99 78.5124 286.59 78.7013C304.661 78.8902 323.108 95.9876 323.955 114.124C297.602 130.371 270.967 146.902 248.849 168.628C236.896 180.341 224.284 194.51 207.531 195.077C197.084 195.36 186.731 189.598 181.555 180.53C176.378 171.461 176.472 159.559 181.931 150.68C173.931 146.902 164.802 141.329 164.99 132.638Z" fill="black"/>
<path fill-rule="evenodd" clip-rule="evenodd" d="M200.755 166.927C198.12 143.595 218.825 116.107 242.167 114.501L318.967 115.541L320.943 128.009L343.437 282.547C343.437 282.547 345.79 333.272 303.626 337.806C265.696 341.868 260.802 301.817 260.802 301.817L256.849 272.628C256.849 272.628 226.355 276.785 213.555 239.378C207.061 220.77 203.672 192.809 200.755 166.927Z" fill="#FFBE9B"/>
<path fill-rule="evenodd" clip-rule="evenodd" d="M222.119 197.533C222.496 200.178 225.037 201.972 227.766 201.689C230.496 201.311 232.378 198.95 232.096 196.305C231.719 193.66 229.178 191.865 226.448 192.149C223.719 192.526 221.837 194.888 222.119 197.533Z" fill="black"/>
<path fill-rule="evenodd" clip-rule="evenodd" d="M211.108 186.197C211.861 186.764 215.061 183.269 220.332 182.419C225.602 181.38 229.932 183.458 230.402 182.702C230.591 182.324 229.838 181.285 227.861 180.341C225.979 179.396 222.967 178.735 219.673 179.302C216.379 179.868 213.838 181.569 212.426 183.175C211.108 184.686 210.826 185.914 211.108 186.197Z" fill="black"/>
<path fill-rule="evenodd" clip-rule="evenodd" d="M266.92 189.22C267.296 191.865 269.838 193.659 272.567 193.376C275.296 192.998 277.179 190.637 276.897 187.992C276.52 185.347 273.979 183.552 271.249 183.836C268.426 184.213 266.543 186.669 266.92 189.22Z" fill="black"/>
<path fill-rule="evenodd" clip-rule="evenodd" d="M259.955 178.357C260.708 178.924 263.908 175.429 269.179 174.579C274.449 173.54 278.779 175.618 279.249 174.862C279.438 174.484 278.685 173.445 276.708 172.501C274.826 171.556 271.814 170.895 268.52 171.462C265.226 172.028 262.685 173.729 261.273 175.335C259.955 176.846 259.673 178.074 259.955 178.357Z" fill="black"/>
<path fill-rule="evenodd" clip-rule="evenodd" d="M250.449 216.331C250.449 216.047 247.061 216.236 241.602 216.614C240.19 216.708 238.873 216.708 238.59 216.047C238.12 215.386 238.496 214.158 238.873 212.836C239.626 210.096 240.473 207.262 241.32 204.24C242.261 201.122 246.59 183.553 246.402 181.947C245.743 181.852 242.543 191.771 239.061 203.956C238.214 206.979 237.461 209.813 236.708 212.552C236.426 213.78 235.767 215.292 236.802 216.803C237.272 217.559 238.402 217.936 239.343 217.936C240.284 218.031 241.037 217.842 241.696 217.842C247.061 217.086 250.449 216.52 250.449 216.331Z" fill="black"/>
<path fill-rule="evenodd" clip-rule="evenodd" d="M256.661 272.912C256.661 272.912 282.731 269.984 305.602 250.052C305.602 250.052 297.226 279.241 258.261 282.452L256.661 272.912Z" fill="#FF996C"/>
<path fill-rule="evenodd" clip-rule="evenodd" d="M258.638 160.315C259.579 161.827 263.908 159.843 269.461 159.182C275.014 158.426 279.908 159.371 280.191 157.67C280.285 156.915 279.155 155.498 276.991 154.364C274.826 153.231 271.626 152.475 268.332 152.853C265.038 153.231 262.214 154.742 260.614 156.348C258.826 158.048 258.167 159.56 258.638 160.315Z" fill="black"/>
<path fill-rule="evenodd" clip-rule="evenodd" d="M207.719 167.966C208.849 169.289 212.614 167.4 217.225 166.833C221.837 166.077 225.884 166.927 226.637 165.321C226.919 164.566 226.166 163.149 224.378 162.015C222.59 160.787 219.578 160.032 216.378 160.41C213.178 160.882 210.543 162.488 209.131 164.094C207.625 165.699 207.249 167.305 207.719 167.966Z" fill="black"/>
<path fill-rule="evenodd" clip-rule="evenodd" d="M200.285 144.446C204.896 130.088 216.379 118.564 229.932 111.952C243.485 105.339 258.826 103.261 273.885 103.734C288.944 104.206 303.814 107.134 318.496 110.062C322.073 110.724 326.026 111.668 328.191 114.596C329.697 116.58 329.979 119.225 330.355 121.681C332.991 142.462 335.626 163.244 338.355 184.025L335.155 197.722C328.567 199.044 321.979 195.171 316.802 190.921C298.449 176.09 286.12 153.892 283.202 130.466C281.696 133.394 281.697 136.795 281.226 140.101C280.755 143.312 279.438 146.902 276.426 148.319C271.438 150.68 266.073 145.58 264.285 140.384C262.496 135.189 262.308 129.238 258.826 124.987C254.967 133.583 249.132 141.329 241.885 147.374C238.496 150.208 233.696 152.853 229.837 150.68C227.108 149.169 225.79 145.768 225.979 142.557C226.167 139.44 227.579 136.511 228.896 133.583C223.908 141.612 216.473 148.224 207.814 152.192C205.932 153.042 203.673 153.798 201.79 152.759C199.061 151.247 199.343 147.374 200.285 144.446Z" fill="black"/>
<path fill-rule="evenodd" clip-rule="evenodd" d="M320.661 172.69C321.226 172.312 343.061 161.732 346.261 185.347C349.461 208.962 325.179 207.357 324.991 206.695C324.897 206.034 320.661 172.69 320.661 172.69Z" fill="#FFBE9B"/>
<path fill-rule="evenodd" clip-rule="evenodd" d="M331.014 196.777C331.108 196.683 331.484 196.966 332.237 197.249C332.99 197.438 334.12 197.533 335.343 196.872C337.696 195.644 339.296 191.393 338.826 187.048C338.637 184.875 337.884 182.891 336.849 181.286C335.908 179.68 334.59 178.641 333.367 178.546C332.049 178.452 331.296 179.302 331.108 179.963C330.92 180.624 331.108 181.097 331.014 181.191C330.92 181.286 330.449 180.908 330.543 179.869C330.543 179.396 330.732 178.83 331.296 178.263C331.767 177.696 332.614 177.413 333.461 177.318C335.249 177.224 337.131 178.641 338.261 180.435C339.484 182.136 340.331 184.403 340.614 186.859C341.084 191.676 339.296 196.399 336.002 197.911C334.402 198.572 332.99 198.288 332.143 197.816C331.108 197.344 330.92 196.777 331.014 196.777Z" fill="#FF996C"/>
<path fill-rule="evenodd" clip-rule="evenodd" d="M266.638 217.747C268.52 220.203 270.59 224.926 270.685 228.043C270.779 231.16 269.367 234.278 266.826 235.978C264.002 237.773 260.238 237.395 257.226 235.883C254.214 234.372 251.861 231.916 249.602 229.555C254.779 225.776 261.461 221.431 266.638 217.747Z" fill="#FF996C"/>
<path fill-rule="evenodd" clip-rule="evenodd" d="M260.426 238.434C260.332 238.529 263.438 238.906 267.108 236.073C268.896 234.656 270.685 232.389 271.343 229.366C272.002 226.343 271.438 222.754 269.461 219.825C268.614 218.597 267.673 217.653 266.543 216.803L266.167 216.519L265.79 216.803C260.802 219.731 256.755 222.754 254.026 225.115C251.296 227.477 249.79 229.083 249.885 229.271C250.167 229.649 256.661 223.793 266.543 218.125H265.696C266.638 218.786 267.485 219.731 268.238 220.77C270.026 223.32 270.59 226.532 270.026 229.177C269.555 231.822 268.049 233.994 266.543 235.317C263.249 238.151 260.332 238.151 260.426 238.434Z" fill="black"/>
<path fill-rule="evenodd" clip-rule="evenodd" d="M332.896 99.2937C332.802 99.3882 333.649 100.333 335.061 102.033C336.473 103.733 338.449 106.284 340.614 109.684C344.849 116.391 349.555 126.593 351.061 138.684C352.567 150.775 351.249 161.921 349.273 169.572C348.332 173.445 347.202 176.468 346.355 178.546C345.508 180.624 344.943 181.758 345.038 181.758C345.038 181.758 345.226 181.474 345.508 181.002C345.79 180.53 346.261 179.774 346.732 178.735C347.767 176.751 348.991 173.634 350.026 169.761C352.191 162.015 353.696 150.775 352.191 138.495C350.685 126.215 345.696 115.824 341.273 109.212C339.014 105.906 336.944 103.356 335.344 101.75C334.591 100.9 333.932 100.333 333.555 99.9549C333.179 99.4826 332.896 99.2937 332.896 99.2937Z" fill="#365864"/>
<path fill-rule="evenodd" clip-rule="evenodd" d="M186.355 92.9651C186.355 92.9651 186.26 93.154 186.26 93.4374C186.26 93.7208 186.072 94.1931 186.072 94.7598C185.978 95.8934 186.166 97.6881 186.543 99.8607C187.39 104.206 189.272 110.346 192.19 117.525L192.661 116.864C186.355 116.013 178.449 116.58 171.202 120.736C169.413 121.776 167.719 123.192 166.402 125.082C165.084 126.876 164.331 129.143 164.143 131.411C163.954 133.678 164.519 136.039 165.461 138.212C166.402 140.384 167.907 142.273 169.602 143.974C171.296 145.674 173.178 147.185 175.249 148.319C177.319 149.452 179.484 150.303 181.461 151.247L181.178 150.303C178.731 153.987 177.508 158.143 177.131 162.11C176.755 166.172 177.225 170.045 178.166 173.54C179.108 177.035 180.425 180.247 182.119 183.08C183.813 185.82 185.884 187.992 188.049 189.598C192.472 192.81 196.802 193.849 199.719 194.227C201.225 194.416 202.355 194.51 203.108 194.416C203.861 194.416 204.237 194.416 204.237 194.321C204.237 194.227 202.637 194.227 199.719 193.754C196.896 193.188 192.661 192.149 188.425 188.937C186.355 187.331 184.378 185.253 182.778 182.514C181.178 179.869 179.955 176.657 179.108 173.257C178.261 169.856 177.79 166.078 178.166 162.205C178.449 158.332 179.672 154.364 182.025 150.964L182.402 150.397L181.743 150.114C179.672 149.169 177.602 148.319 175.625 147.28C173.649 146.241 171.86 144.729 170.26 143.124C168.66 141.518 167.249 139.723 166.402 137.739C165.555 135.756 165.084 133.583 165.178 131.505C165.366 127.254 168.19 123.759 171.578 121.776C178.543 117.808 186.166 117.147 192.378 117.903L193.131 117.997L192.849 117.241C189.837 110.062 187.766 104.017 186.825 99.7663C186.355 97.5937 186.072 95.9878 186.072 94.7598C186.355 93.6263 186.449 92.9651 186.355 92.9651Z" fill="#365864"/>
<path fill-rule="evenodd" clip-rule="evenodd" d="M410.732 409.597C410.732 409.597 429.744 450.404 437.838 476.191C444.238 496.5 452.426 548.737 428.614 575.28C404.709 601.824 357.65 607.019 337.979 606.075C314.638 604.847 153.602 574.43 153.602 574.43L248.379 477.892L410.732 409.597Z" fill="#202D34"/>
<path fill-rule="evenodd" clip-rule="evenodd" d="M161.507 404.685C161.507 404.685 190.496 326.849 200.566 311.547C207.625 300.873 215.154 294.733 215.154 294.733L251.296 389.099C251.296 389.099 216.943 455.883 190.872 456.733C157.178 457.866 161.507 404.685 161.507 404.685Z" fill="#B78BFF"/>
<path fill-rule="evenodd" clip-rule="evenodd" d="M253.272 276.785L215.249 294.733L253.649 442.658L240.943 485.638C240.943 485.638 366.873 515.015 419.579 505.758C428.144 504.246 441.132 506.324 444.802 502.829C439.814 453.71 429.649 446.814 414.967 425.844L393.414 326.85L378.167 262.333L339.296 256.193C318.778 293.316 277.366 317.97 253.272 276.785Z" fill="#B78BFF"/>
<path fill-rule="evenodd" clip-rule="evenodd" d="M370.261 260.916C370.261 260.916 406.59 259.31 423.908 305.218C435.484 335.918 449.602 372.946 455.532 405.441C457.132 414.414 454.402 428.017 450.826 432.551C446.685 437.746 375.249 498.862 375.249 498.862L318.966 481.198L391.155 407.802L369.884 330.911L370.261 260.916Z" fill="#B78BFF"/>
<path fill-rule="evenodd" clip-rule="evenodd" d="M317.649 485.638C317.649 485.638 318.12 485.26 318.967 484.41C319.908 483.465 321.132 482.237 322.637 480.631C325.932 477.231 330.449 472.413 336.096 466.557C347.484 454.466 363.014 437.935 380.143 419.61C383.908 415.548 387.673 411.581 391.249 407.708L391.438 407.424L391.344 407.141C386.638 386.454 382.496 368.223 379.485 355.093C377.979 348.67 376.755 343.475 375.814 339.791C375.343 338.09 375.061 336.768 374.779 335.634C374.496 334.69 374.402 334.218 374.308 334.218C374.308 334.218 374.308 334.69 374.496 335.634C374.685 336.674 374.967 338.09 375.343 339.791C376.096 343.569 377.226 348.764 378.638 355.188C381.555 368.412 385.602 386.643 390.12 407.33L390.308 406.763C386.732 410.636 382.967 414.603 379.202 418.665C362.167 436.991 346.638 453.71 335.343 465.801C329.885 471.846 325.367 476.664 322.167 480.159C320.661 481.765 319.531 483.087 318.59 484.126C318.026 485.071 317.555 485.638 317.649 485.638Z" fill="#202D34"/>
<path fill-rule="evenodd" clip-rule="evenodd" d="M375.061 498.295C375.249 498.579 392.19 484.599 412.708 467.029C433.32 449.459 449.79 435.101 449.602 434.818C449.414 434.535 432.567 448.515 411.955 466.084C391.343 483.654 374.778 498.106 375.061 498.295Z" fill="#202D34"/>
<path fill-rule="evenodd" clip-rule="evenodd" d="M370.92 314.475C371.202 314.475 370.638 311.641 371.202 307.107C371.861 302.667 373.838 296.528 377.791 290.86C381.649 285.098 386.45 280.847 390.403 278.674C394.355 276.407 397.273 276.407 397.273 276.219C397.273 276.124 396.52 276.124 395.297 276.219C393.979 276.407 392.191 276.88 390.026 277.919C385.791 279.997 380.708 284.248 376.755 290.199C372.708 296.055 370.732 302.479 370.261 307.107C370.073 308.241 370.167 309.374 370.167 310.224C370.167 311.169 370.261 311.925 370.355 312.586C370.638 313.814 370.826 314.475 370.92 314.475Z" fill="#202D34"/>
<path fill-rule="evenodd" clip-rule="evenodd" d="M238.778 385.698C238.684 385.698 238.778 386.549 239.155 387.966C239.437 389.382 239.908 391.555 240.567 394.105C241.79 399.301 243.578 406.385 245.555 414.32C247.625 422.16 249.508 429.245 250.92 434.44C251.673 436.991 252.237 439.069 252.708 440.486C253.179 441.902 253.461 442.658 253.555 442.658C253.649 442.658 253.555 441.808 253.179 440.391C252.896 438.974 252.426 436.802 251.767 434.251C250.543 429.056 248.755 421.971 246.778 414.037C244.708 406.196 242.826 399.112 241.414 393.917C240.661 391.366 240.096 389.288 239.625 387.871C239.155 386.454 238.873 385.698 238.778 385.698Z" fill="#202D34"/>
<path fill-rule="evenodd" clip-rule="evenodd" d="M163.484 400.245C163.672 400.339 165.554 397.411 168.943 392.877C172.331 388.343 177.319 382.297 183.154 375.969C188.99 369.64 194.637 364.161 198.872 360.477C203.108 356.699 205.931 354.62 205.837 354.432C205.743 354.337 204.99 354.809 203.672 355.754C202.354 356.699 200.472 358.021 198.307 359.816C193.884 363.405 188.143 368.79 182.213 375.118C176.284 381.542 171.39 387.682 168.19 392.31C166.59 394.672 165.366 396.561 164.519 397.978C163.86 399.395 163.39 400.15 163.484 400.245Z" fill="#202D34"/>
<path fill-rule="evenodd" clip-rule="evenodd" d="M421.178 406.857C421.273 406.763 419.861 405.44 417.131 404.118C414.402 402.796 410.355 401.473 405.649 401.568C401.037 401.662 396.802 402.607 394.167 404.212C391.531 405.818 390.402 407.33 390.496 407.424C390.59 407.613 392.002 406.291 394.637 405.063C397.178 403.74 401.225 402.984 405.743 402.89C410.167 402.796 414.12 403.929 416.849 404.968C419.578 406.007 421.084 407.046 421.178 406.857Z" fill="#202D34"/>
<path fill-rule="evenodd" clip-rule="evenodd" d="M383.72 376.347C383.814 376.536 386.826 374.647 392.002 372.096C397.084 369.546 404.426 366.523 412.896 364.445C421.367 362.367 429.273 361.705 435.014 361.611C440.755 361.516 444.237 361.8 444.332 361.611C444.332 361.516 443.485 361.422 441.885 361.139C440.285 360.95 437.932 360.761 435.108 360.666C429.367 360.572 421.367 361.139 412.708 363.217C404.143 365.295 396.708 368.507 391.72 371.246C389.179 372.663 387.202 373.796 385.884 374.741C384.379 375.686 383.72 376.252 383.72 376.347Z" fill="#11341F"/>
<path fill-rule="evenodd" clip-rule="evenodd" d="M373.273 332.328C373.461 332.517 375.814 330.25 380.143 327.133C384.473 324.016 390.685 320.237 398.308 317.404C405.838 314.57 413.085 313.153 418.355 312.68C423.626 312.114 426.92 312.208 426.92 312.019C426.92 311.925 426.073 311.83 424.567 311.736C423.061 311.641 420.896 311.641 418.261 311.83C412.896 312.114 405.555 313.342 397.838 316.27C390.214 319.198 383.814 323.166 379.673 326.472C377.602 328.172 375.908 329.589 374.873 330.628C373.743 331.667 373.179 332.328 373.273 332.328Z" fill="#11341F"/>
<path fill-rule="evenodd" clip-rule="evenodd" d="M382.213 416.492C382.213 416.681 385.79 416.965 391.343 418.287C396.896 419.515 404.519 421.877 412.331 425.844C416.19 427.828 419.767 430 422.872 432.173C425.884 434.44 428.613 436.518 430.684 438.502C434.825 442.469 436.99 445.303 437.178 445.208C437.272 445.114 436.802 444.453 435.861 443.13C435.39 442.469 434.825 441.713 434.072 440.769C433.319 439.919 432.472 438.88 431.437 437.841C429.461 435.762 426.731 433.495 423.719 431.134C420.614 428.867 417.037 426.694 413.084 424.616C405.178 420.649 397.366 418.382 391.719 417.343C390.308 417.059 388.99 416.87 387.86 416.776C386.731 416.587 385.696 416.492 384.943 416.492C383.155 416.398 382.213 416.398 382.213 416.492Z" fill="#11341F"/>
<path fill-rule="evenodd" clip-rule="evenodd" d="M249.79 455.127C249.79 455.127 250.166 455.127 250.919 455.033C251.766 454.844 252.802 454.655 254.119 454.466C257.037 453.899 260.99 453.143 265.79 452.199C275.578 450.31 289.225 447.759 304.378 445.775C319.531 443.792 333.273 442.658 343.343 442.186C348.332 441.997 352.378 441.808 355.202 441.808C356.52 441.808 357.555 441.714 358.402 441.714C359.155 441.714 359.531 441.619 359.531 441.619C359.531 441.619 359.155 441.525 358.402 441.525C357.555 441.525 356.426 441.43 355.202 441.43C352.378 441.336 348.332 441.336 343.343 441.43C333.273 441.619 319.437 442.658 304.284 444.642C289.131 446.72 275.484 449.27 265.696 451.443C260.802 452.482 256.849 453.427 254.119 454.182C252.896 454.466 251.861 454.749 251.013 455.033C250.166 454.938 249.79 455.127 249.79 455.127Z" fill="#11341F"/>
<path fill-rule="evenodd" clip-rule="evenodd" d="M245.272 411.297C245.272 411.297 245.742 411.297 246.683 411.108C247.719 410.825 249.131 410.542 250.731 410.164C254.401 409.314 259.484 408.18 265.695 406.763C278.307 403.929 295.813 400.245 315.201 396.845C334.59 393.444 352.284 390.988 365.178 389.288C371.484 388.532 376.66 387.871 380.331 387.399C382.025 387.21 383.343 387.021 384.472 386.832C385.413 386.737 385.884 386.643 385.884 386.549C385.884 386.549 385.413 386.549 384.472 386.549C383.437 386.643 382.025 386.737 380.331 386.832C376.754 387.115 371.484 387.588 365.084 388.343C352.19 389.76 334.496 392.122 315.013 395.522C295.531 398.923 278.119 402.796 265.507 405.818C259.201 407.33 254.119 408.652 250.637 409.597C249.037 410.069 247.625 410.447 246.589 410.73C245.742 411.108 245.272 411.297 245.272 411.297Z" fill="#11341F"/>
<path fill-rule="evenodd" clip-rule="evenodd" d="M246.214 358.21C246.214 358.21 246.684 358.116 247.531 357.927C248.473 357.644 249.696 357.266 251.202 356.793C254.402 355.754 258.92 354.337 264.661 352.637C276.049 349.331 292.049 345.364 310.026 342.624C328.002 339.885 344.379 338.94 356.332 338.751C362.261 338.657 367.061 338.657 370.449 338.751C372.049 338.751 373.273 338.751 374.308 338.751C375.155 338.751 375.626 338.751 375.626 338.657C375.626 338.657 375.155 338.562 374.308 338.468C373.273 338.374 372.049 338.279 370.449 338.185C367.155 337.996 362.261 337.807 356.332 337.807C344.379 337.712 327.908 338.562 309.837 341.302C291.861 344.041 275.767 348.103 264.473 351.692C258.826 353.487 254.214 354.999 251.108 356.227C249.696 356.793 248.473 357.266 247.531 357.643C246.59 358.021 246.119 358.21 246.214 358.21Z" fill="#11341F"/>
<path fill-rule="evenodd" clip-rule="evenodd" d="M311.72 292.277C311.72 292.466 315.296 291.993 321.132 291.426C326.967 290.86 334.967 290.387 343.908 290.387C352.755 290.387 360.849 290.954 366.685 291.521C372.52 292.088 376.096 292.56 376.096 292.371C376.096 292.277 375.25 292.088 373.65 291.71C372.05 291.426 369.697 290.954 366.779 290.576C360.944 289.821 352.849 289.065 343.908 289.065C334.967 289.065 326.873 289.726 321.037 290.482C318.12 290.86 315.767 291.238 314.167 291.521C312.661 291.993 311.72 292.182 311.72 292.277Z" fill="#11341F"/>
<path fill-rule="evenodd" clip-rule="evenodd" d="M196.895 317.498C196.801 317.876 203.954 320.521 212.143 325.149C220.331 329.778 226.26 334.595 226.543 334.312C226.637 334.217 225.319 332.801 222.872 330.817C220.425 328.833 216.943 326.377 212.801 324.016C208.66 321.654 204.707 319.954 201.79 318.82C198.778 317.781 196.895 317.403 196.895 317.498Z" fill="#11341F"/>
<path fill-rule="evenodd" clip-rule="evenodd" d="M178.731 360.572C178.731 360.95 181.931 361.517 185.79 362.556C189.743 363.595 192.849 364.634 192.943 364.256C193.037 363.973 190.119 362.367 186.072 361.328C182.119 360.289 178.731 360.289 178.731 360.572Z" fill="#11341F"/>
<path fill-rule="evenodd" clip-rule="evenodd" d="M177.79 382.204C177.696 382.204 177.884 383.148 178.355 384.943C178.543 385.793 178.825 386.832 179.296 388.06C179.672 389.288 180.143 390.611 180.801 392.028C182.025 394.956 183.719 398.356 185.978 401.851C188.237 405.346 191.06 409.03 194.449 412.525C197.837 416.021 201.413 418.949 204.896 421.31C208.378 423.672 211.672 425.467 214.59 426.789C216.002 427.45 217.413 427.923 218.543 428.395C219.672 428.867 220.708 429.15 221.555 429.434C223.249 429.906 224.19 430.095 224.19 430.095C224.284 429.906 220.519 428.773 214.872 426.033C212.049 424.711 208.849 422.822 205.461 420.46C202.072 418.099 198.59 415.17 195.296 411.77C192.002 408.369 189.178 404.78 186.919 401.285C184.66 397.79 182.872 394.578 181.554 391.65C178.919 385.982 177.978 382.204 177.79 382.204Z" fill="#11341F"/>
<path fill-rule="evenodd" clip-rule="evenodd" d="M345.037 458.244C345.037 458.433 348.049 459.094 352.943 460.417C357.838 461.739 364.52 463.723 371.673 466.557C378.826 469.39 385.132 472.413 389.555 474.869C393.979 477.231 396.708 478.837 396.802 478.648C396.802 478.553 396.238 478.081 395.014 477.325C393.885 476.475 392.097 475.436 389.932 474.113C385.602 471.563 379.296 468.351 372.049 465.423C364.802 462.589 358.026 460.7 353.132 459.567C350.685 459 348.614 458.622 347.202 458.433C345.884 458.244 345.132 458.15 345.037 458.244Z" fill="#11341F"/>
<path fill-rule="evenodd" clip-rule="evenodd" d="M399.438 485.165C399.438 485.354 401.697 485.827 405.555 486.204C409.414 486.582 414.685 486.771 420.52 486.771C426.356 486.771 431.626 486.582 435.485 486.393C439.344 486.204 441.603 486.299 441.697 486.11C441.697 485.921 439.344 485.543 435.485 485.449C431.626 485.354 426.356 485.354 420.52 485.449C414.685 485.449 409.414 485.449 405.65 485.26C401.791 485.165 399.438 484.976 399.438 485.165Z" fill="#11341F"/>
<path opacity="0.3" fill-rule="evenodd" clip-rule="evenodd" d="M379.296 352.354L386.638 406.574C386.638 406.574 346.261 441.147 340.049 452.954C333.838 464.762 336.002 466.557 336.002 466.557L390.873 407.519L379.296 352.354Z" fill="black"/>
<path fill-rule="evenodd" clip-rule="evenodd" d="M147.954 618.921L185.413 575.092L225.79 609.475L180.237 649.338L147.954 618.921Z" fill="#FFBE9B"/>
<path fill-rule="evenodd" clip-rule="evenodd" d="M151.249 608.436L148.99 610.986C148.99 610.986 91.4839 590.394 83.8603 598.045L168.472 672.48L192.002 643.197C174.402 637.908 160.661 627.045 151.249 608.436Z" fill="#86BF65"/>
<path fill-rule="evenodd" clip-rule="evenodd" d="M168.566 672.48L174.213 665.396L91.0132 596.628C91.0132 596.628 85.8367 594.928 83.9544 598.045L168.566 672.48Z" fill="#DFDFDF"/>
<path fill-rule="evenodd" clip-rule="evenodd" d="M140.801 621.661C140.895 621.755 141.648 621.283 142.495 620.244C143.343 619.205 144.19 617.41 144.566 615.426C144.942 613.348 144.66 611.459 144.19 610.136C143.719 608.814 143.248 608.153 143.06 608.247C142.684 608.342 144.001 611.459 143.343 615.237C142.778 619.016 140.519 621.472 140.801 621.661Z" fill="#202D34"/>
<path fill-rule="evenodd" clip-rule="evenodd" d="M146.072 624.589C146.26 624.778 148.708 622.227 149.366 618.071C150.119 613.915 148.613 610.703 148.331 610.798C147.954 610.892 148.802 614.009 148.143 617.882C147.672 621.755 145.79 624.4 146.072 624.589Z" fill="#202D34"/>
<path fill-rule="evenodd" clip-rule="evenodd" d="M132.519 617.977C132.614 618.26 135.249 616.843 136.849 613.632C138.449 610.42 137.978 607.492 137.696 607.586C137.319 607.586 137.225 610.231 135.719 613.159C134.308 615.899 132.237 617.693 132.519 617.977Z" fill="#202D34"/>
<path fill-rule="evenodd" clip-rule="evenodd" d="M142.213 608.814C142.213 608.908 143.907 608.719 146.072 607.208C147.107 606.452 148.331 605.413 149.46 604.185C150.025 603.524 150.59 602.863 151.248 602.201C151.531 601.824 151.907 601.54 152.19 600.973C152.472 600.501 152.66 599.745 152.284 599.084C152.001 598.329 151.06 598.045 150.401 598.14C149.743 598.234 149.272 598.517 148.895 598.801C148.143 599.368 147.39 599.934 146.731 600.596C145.507 601.824 144.66 603.146 144.095 604.374C142.966 606.735 142.966 608.436 143.154 608.436C143.342 608.436 143.625 606.924 144.848 604.752C145.507 603.713 146.354 602.485 147.484 601.351C148.048 600.784 148.707 600.312 149.46 599.84C150.119 599.368 150.966 599.273 151.06 599.651C151.343 600.123 150.872 600.784 150.213 601.54C149.648 602.201 149.084 602.863 148.519 603.524C147.484 604.752 146.354 605.885 145.413 606.641C143.719 608.152 142.213 608.625 142.213 608.814Z" fill="#202D34"/>
<path fill-rule="evenodd" clip-rule="evenodd" d="M141.931 608.058C141.837 608.058 141.931 608.341 142.12 608.719L142.308 609.097L142.496 608.719C142.872 607.964 143.531 606.358 143.814 604.185C143.908 603.052 144.002 601.824 143.908 600.407C143.814 599.746 143.719 598.99 143.625 598.329C143.531 597.951 143.437 597.573 143.155 597.101C142.872 596.723 142.402 596.345 141.837 596.251C140.99 596.156 140.331 596.912 140.237 597.384C140.049 597.951 140.049 598.423 139.955 598.801C139.861 599.651 139.861 600.596 139.955 601.351C140.049 602.957 140.425 604.374 140.896 605.602C141.837 607.869 142.872 609.003 142.967 608.908C143.155 608.814 142.308 607.586 141.649 605.319C141.367 604.185 141.084 602.863 140.99 601.351C140.99 600.596 140.99 599.746 141.084 598.99C141.084 598.14 141.461 597.384 141.649 597.478C142.308 597.478 142.496 599.368 142.684 600.501C142.872 601.729 142.873 602.957 142.778 603.996C142.684 606.169 142.214 607.68 142.12 608.53H142.496C142.12 608.247 141.931 608.058 141.931 608.058Z" fill="#202D34"/>
<path fill-rule="evenodd" clip-rule="evenodd" d="M245.931 495.556C260.237 495.178 160.095 485.921 144.095 485.449C108.801 484.41 74.9187 511.709 71.3422 534.852C67.1069 561.679 103.248 587.466 120.189 592.284C130.636 595.212 237.46 614.765 237.46 614.765L251.107 514.543L245.931 495.556Z" fill="#202D34"/>
<path fill-rule="evenodd" clip-rule="evenodd" d="M262.401 625.439L211.389 598.99L235.389 551.666L284.519 586.899L262.401 625.439Z" fill="#FFBE9B"/>
<path fill-rule="evenodd" clip-rule="evenodd" d="M251.577 624.589L254.495 626.195C254.495 626.195 247.812 687.122 256.942 692.789L309.648 592.945L275.859 576.698C274.824 595.212 267.389 611.176 251.577 624.589Z" fill="#86BF65"/>
<path fill-rule="evenodd" clip-rule="evenodd" d="M309.649 592.945L301.554 589.072L254.025 686.178C254.025 686.178 253.648 691.656 257.037 692.79L309.649 592.945Z" fill="#DFDFDF"/>
<path fill-rule="evenodd" clip-rule="evenodd" d="M266.825 631.768C266.919 631.674 266.261 631.013 265.037 630.446C263.813 629.879 261.931 629.407 259.86 629.501C257.79 629.596 256.002 630.351 254.778 631.107C253.649 631.863 253.084 632.524 253.178 632.618C253.366 632.902 256.002 630.918 259.86 630.729C263.813 630.446 266.637 632.146 266.825 631.768Z" fill="#202D34"/>
<path fill-rule="evenodd" clip-rule="evenodd" d="M268.424 625.911C268.613 625.628 265.507 623.833 261.366 624.117C257.13 624.4 254.401 626.573 254.589 626.762C254.777 627.045 257.601 625.534 261.46 625.345C265.319 625.156 268.33 626.289 268.424 625.911Z" fill="#202D34"/>
<path fill-rule="evenodd" clip-rule="evenodd" d="M265.131 640.742C265.413 640.553 263.343 638.286 259.954 637.53C256.472 636.68 253.743 637.814 253.837 638.097C253.931 638.475 256.566 638.003 259.672 638.758C262.778 639.42 264.849 641.025 265.131 640.742Z" fill="#202D34"/>
<path fill-rule="evenodd" clip-rule="evenodd" d="M254.025 633.374C254.119 633.28 253.554 631.768 251.578 629.974C250.636 629.124 249.319 628.179 247.813 627.329C247.06 626.951 246.307 626.479 245.46 626.101C245.084 625.912 244.613 625.629 244.048 625.534C243.484 625.345 242.731 625.345 242.166 625.817C241.507 626.29 241.413 627.329 241.695 627.801C241.884 628.368 242.26 628.746 242.636 629.124C243.295 629.785 244.048 630.352 244.801 630.824C246.307 631.768 247.813 632.241 249.036 632.524C251.672 633.091 253.272 632.619 253.178 632.524C253.178 632.335 251.578 632.43 249.225 631.674C248.001 631.296 246.683 630.729 245.366 629.879C244.707 629.407 244.048 628.935 243.389 628.273C242.73 627.707 242.448 626.951 242.825 626.762C243.201 626.384 244.048 626.762 244.801 627.14C245.554 627.518 246.401 627.896 247.154 628.273C248.66 629.029 249.883 629.785 250.919 630.54C252.989 632.052 253.836 633.469 254.025 633.374Z" fill="#202D34"/>
<path fill-rule="evenodd" clip-rule="evenodd" d="M253.366 633.846C253.366 633.941 253.648 633.752 254.025 633.468L254.307 633.279L253.931 633.185C253.084 632.996 251.39 632.713 249.225 632.996C248.095 633.09 246.872 633.374 245.554 633.846C244.895 634.035 244.237 634.318 243.578 634.602C243.295 634.791 242.825 634.98 242.542 635.357C242.166 635.735 241.978 636.208 241.978 636.869C242.072 637.719 242.919 638.191 243.484 638.191C244.048 638.286 244.519 638.191 244.99 638.097C245.837 638.002 246.684 637.813 247.531 637.53C249.131 637.058 250.354 636.302 251.389 635.641C253.366 634.224 254.213 632.901 254.119 632.807C254.025 632.713 252.895 633.752 250.919 634.885C249.883 635.452 248.66 636.019 247.154 636.491C246.401 636.68 245.648 636.869 244.801 636.963C243.954 637.152 243.107 636.963 243.201 636.68C243.013 636.019 244.895 635.357 245.931 634.885C247.154 634.413 248.284 634.129 249.319 633.94C251.389 633.563 253.084 633.563 253.837 633.563L253.742 633.279C253.46 633.657 253.366 633.846 253.366 633.846Z" fill="#202D34"/>
<path fill-rule="evenodd" clip-rule="evenodd" d="M443.672 514.637C435.955 507.647 410.167 490.738 384.284 481.67C359.249 472.885 298.448 461.361 284.331 465.14C254.589 473.169 152.848 603.43 152.848 603.43L203.483 639.041C203.483 639.041 227.295 621.377 266.731 594.456L301.46 568.29C301.46 568.29 312.566 599.557 340.99 606.736L443.672 514.637Z" fill="#202D34"/>
<path fill-rule="evenodd" clip-rule="evenodd" d="M340.99 606.642C340.99 606.642 340.707 606.547 340.049 606.264C339.39 606.075 338.543 605.791 337.319 605.319C336.096 605.036 334.684 604.28 332.99 603.524C331.296 602.863 329.413 601.635 327.343 600.502C323.296 597.857 318.59 594.078 314.072 588.694C309.554 583.31 305.131 576.414 301.742 568.102L301.554 567.629L301.178 567.913C295.06 572.447 288.472 577.453 281.319 582.837C274.166 588.127 266.637 594.173 258.072 599.746C241.319 611.27 222.778 624.211 203.013 638.569H203.672C187.86 627.423 170.824 615.426 153.036 602.958L153.13 603.808C165.366 588.316 178.26 572.447 191.719 556.483C205.083 540.614 218.448 525.311 231.813 510.859C238.495 503.68 245.178 496.784 251.954 490.172C258.731 483.654 265.507 477.42 272.754 472.13C276.331 469.579 280.095 467.029 284.142 465.801C285.178 465.518 286.213 465.423 287.248 465.234C288.284 465.14 289.413 465.14 290.448 465.045C292.613 464.951 294.684 465.045 296.848 465.14C305.319 465.612 313.507 466.651 321.413 467.879C337.225 470.335 351.813 473.358 364.99 476.664C371.578 478.364 377.79 480.064 383.625 482.048C389.366 484.032 394.731 486.299 399.625 488.471C409.413 492.911 417.602 497.54 424.096 501.413C430.59 505.38 435.484 508.686 438.684 511.047C440.284 512.181 441.508 513.22 442.261 513.787C443.013 514.448 443.484 514.731 443.484 514.731C443.484 514.731 441.978 513.22 438.778 510.764C435.578 508.308 430.778 504.908 424.284 500.94C417.79 496.973 409.696 492.344 399.814 487.81C394.919 485.543 389.555 483.276 383.719 481.198C377.884 479.12 371.672 477.42 365.084 475.719C351.907 472.413 337.319 469.296 321.413 466.84C313.507 465.612 305.319 464.573 296.754 464.101C294.59 464.101 292.425 463.912 290.26 464.006C289.131 464.101 288.095 464.101 286.966 464.195C285.837 464.384 284.707 464.573 283.672 464.762C279.342 466.084 275.578 468.635 271.907 471.28C264.566 476.664 257.695 482.898 250.919 489.416C244.142 496.028 237.46 502.924 230.778 510.103C217.413 524.461 204.048 539.763 190.683 555.727C177.224 571.786 164.33 587.655 152.095 603.146L151.719 603.619L152.283 603.997C170.072 616.465 187.107 628.462 202.919 639.514L203.295 639.703L203.578 639.419C223.248 624.967 241.789 612.026 258.448 600.502C266.919 594.928 274.448 588.883 281.601 583.499C288.754 578.114 295.343 573.108 301.366 568.479L300.801 568.291C307.766 585.293 318.59 595.779 326.872 600.785C329.037 602.013 330.825 603.146 332.613 603.808C334.307 604.563 335.719 605.225 337.037 605.508C338.26 605.886 339.107 606.169 339.766 606.358C340.707 606.547 340.99 606.642 340.99 606.642Z" fill="#365864"/>
<path fill-rule="evenodd" clip-rule="evenodd" d="M138.354 495.272C138.354 495.367 139.578 495.556 141.837 495.839C144.284 496.123 147.484 496.595 151.248 497.067C155.201 497.54 160.001 498.201 165.178 498.956C170.449 499.712 176.096 500.846 181.931 502.452C187.766 504.057 193.225 506.23 198.025 508.308C202.919 510.386 207.155 512.464 210.825 514.165C214.307 515.865 217.131 517.187 219.39 518.321C221.46 519.265 222.59 519.738 222.59 519.738C222.59 519.643 221.555 518.982 219.578 517.943C217.602 516.809 214.778 515.298 211.201 513.503C207.625 511.709 203.39 509.536 198.496 507.363C193.601 505.191 188.143 503.018 182.213 501.318C176.284 499.618 170.542 498.579 165.272 497.917C160.001 497.162 155.295 496.689 151.248 496.217C147.295 495.839 144.001 495.556 141.742 495.367C139.672 495.178 138.448 495.178 138.354 495.272Z" fill="#365864"/>
<path fill-rule="evenodd" clip-rule="evenodd" d="M333.46 527.767C333.178 527.767 333.931 531.356 331.672 536.268C330.637 538.724 328.754 541.463 326.307 544.108C323.86 546.753 320.848 549.398 317.742 552.232C311.531 557.899 305.978 563.095 302.025 566.873C300.048 568.762 298.448 570.368 297.319 571.407C296.19 572.541 295.625 573.108 295.719 573.202C295.813 573.297 296.472 572.73 297.601 571.785C298.825 570.841 300.519 569.329 302.59 567.534C306.731 563.945 312.378 558.844 318.59 553.176C321.696 550.343 324.707 547.698 327.154 544.958C329.601 542.219 331.484 539.385 332.425 536.74C333.46 534.095 333.743 531.828 333.743 530.223C333.837 528.617 333.554 527.767 333.46 527.767Z" fill="#365864"/>
<path fill-rule="evenodd" clip-rule="evenodd" d="M339.108 256.004C339.108 256.004 339.673 256.193 340.802 256.382C342.026 256.571 343.72 256.949 345.791 257.326C350.308 258.082 356.52 259.121 364.238 260.444C371.955 261.86 381.461 262.522 390.873 267.056C400.285 271.307 409.226 279.052 415.626 289.16C418.826 294.26 421.273 299.55 423.155 304.934C425.32 310.224 427.297 315.325 429.273 320.143C433.132 329.872 436.426 338.657 439.062 346.119C441.697 353.582 443.579 359.627 444.991 363.878C445.65 365.861 446.12 367.467 446.591 368.695C446.967 369.829 447.156 370.396 447.156 370.396C447.156 370.396 447.061 369.829 446.779 368.695C446.403 367.467 446.026 365.861 445.462 363.783C444.238 359.533 442.45 353.393 439.908 345.836C437.367 338.373 434.167 329.494 430.403 319.765C428.52 314.853 426.45 309.752 424.379 304.557C422.591 299.172 420.05 293.694 416.756 288.593C410.261 278.297 401.132 270.456 391.438 266.111C386.638 263.844 381.838 262.616 377.226 261.672C372.614 260.821 368.379 260.255 364.52 259.688C356.802 258.554 350.496 257.61 346.073 256.949C344.002 256.665 342.308 256.476 341.085 256.287C339.767 256.004 339.108 256.004 339.108 256.004Z" fill="#202D34"/>
<path opacity="0.3" fill-rule="evenodd" clip-rule="evenodd" d="M243.767 362.272C245.272 358.399 246.966 354.337 249.978 351.503C252.143 349.425 254.967 348.103 257.414 346.497C259.955 344.797 262.308 342.624 262.967 339.696L282.167 333.272C285.273 334.689 285.461 339.223 284.049 342.246C282.637 345.363 280.002 347.819 278.873 351.031C277.367 355.093 278.308 359.91 276.425 363.783C274.731 367.467 270.967 369.829 267.202 371.246C263.437 372.757 259.39 373.702 255.908 375.78C243.766 383.148 241.978 401.756 229.461 408.557C233.131 392.877 237.931 377.386 243.767 362.272Z" fill="black"/>
<path fill-rule="evenodd" clip-rule="evenodd" d="M245.366 308.146C245.366 308.146 257.131 301.44 259.578 301.628C262.119 301.723 278.213 308.052 278.213 308.052C278.213 308.052 276.707 315.798 270.778 314.286C264.848 312.68 245.366 308.146 245.366 308.146Z" fill="#FFBE9B"/>
<path fill-rule="evenodd" clip-rule="evenodd" d="M204.425 360.477C204.331 360.005 225.131 335.728 225.131 335.728C225.131 335.728 238.59 312.869 239.625 311.641C241.79 309.091 247.625 307.012 247.625 307.012C247.625 307.012 271.437 303.895 276.99 307.201C279.06 308.429 280.284 309.941 280.943 311.358C282.26 314.097 281.225 317.403 278.402 319.009L277.743 319.387C277.743 319.387 282.919 318.915 284.237 325.905C285.272 331.289 281.131 333.461 281.131 333.461C283.107 337.051 281.319 340.64 279.907 342.719C279.154 343.758 278.119 344.608 276.896 345.08C276.896 345.08 270.59 358.21 267.484 361.044C264.378 363.783 248.755 368.79 248.755 368.79L230.872 399.678C214.966 395.9 204.613 361.422 204.425 360.477Z" fill="#FFBE9B"/>
<path fill-rule="evenodd" clip-rule="evenodd" d="M256.566 321.276C256.66 321.654 261.366 321.181 267.295 320.709C273.225 320.237 278.025 319.859 278.025 319.481C278.025 319.198 273.225 319.009 267.201 319.481C261.272 319.953 256.472 320.898 256.566 321.276Z" fill="#FF996C"/>
<path fill-rule="evenodd" clip-rule="evenodd" d="M259.107 335.067C259.201 335.445 264.095 334.973 270.119 334.595C276.142 334.123 281.131 333.745 281.131 333.461C281.131 333.178 276.142 332.989 270.025 333.367C263.907 333.745 259.013 334.784 259.107 335.067Z" fill="#FF996C"/>
<path fill-rule="evenodd" clip-rule="evenodd" d="M261.178 346.402C261.272 346.78 264.849 346.497 269.366 346.213C273.884 345.835 277.46 345.174 277.46 344.796C277.46 344.419 273.79 344.513 269.272 344.985C264.754 345.174 261.084 346.119 261.178 346.402Z" fill="#FF996C"/>
<path fill-rule="evenodd" clip-rule="evenodd" d="M251.484 306.635C251.484 306.824 253.461 306.729 256.472 306.729C260.049 306.635 264.096 306.635 268.519 306.54C269.743 306.54 270.872 306.446 271.908 306.54C272.943 306.54 274.072 306.54 275.013 306.824C276.896 307.296 278.402 308.241 279.343 309.374C281.225 311.641 281.131 313.814 281.414 313.719C281.508 313.719 281.602 313.247 281.414 312.302C281.319 311.452 281.037 310.13 280.002 308.807C279.061 307.485 277.366 306.257 275.296 305.69C274.261 305.312 273.131 305.407 272.002 305.312C270.872 305.218 269.649 305.312 268.519 305.312C259.108 305.312 251.39 306.257 251.484 306.635Z" fill="#FF996C"/>
</g>
<defs>
<filter id="filter0_bd_235_87" x="66.9998" y="70" width="393" height="630.79" filterUnits="userSpaceOnUse" color-interpolation-filters="sRGB">
<feFlood flood-opacity="0" result="BackgroundImageFix"/>
<feGaussianBlur in="BackgroundImage" stdDeviation="2"/>
<feComposite in2="SourceAlpha" operator="in" result="effect1_backgroundBlur_235_87"/>
<feColorMatrix in="SourceAlpha" type="matrix" values="0 0 0 0 0 0 0 0 0 0 0 0 0 0 0 0 0 0 127 0" result="hardAlpha"/>
<feOffset dy="4"/>
<feGaussianBlur stdDeviation="2"/>
<feComposite in2="hardAlpha" operator="out"/>
<feColorMatrix type="matrix" values="0 0 0 0 0 0 0 0 0 0 0 0 0 0 0 0 0 0 0.25 0"/>
<feBlend mode="normal" in2="effect1_backgroundBlur_235_87" result="effect2_dropShadow_235_87"/>
<feBlend mode="normal" in="SourceGraphic" in2="effect2_dropShadow_235_87" result="shape"/>
</filter>
<linearGradient id="paint0_linear_235_87" x1="150.784" y1="26.2657" x2="375.148" y2="516.361" gradientUnits="userSpaceOnUse">
<stop stop-color="#43F2FA"/>
<stop offset="1" stop-color="#43F2FA" stop-opacity="0"/>
</linearGradient>
</defs>
</svg>
