<svg width="927" height="846" viewBox="0 0 927 846" fill="none" xmlns="http://www.w3.org/2000/svg">
<path fill-rule="evenodd" clip-rule="evenodd" d="M694.821 369.68C712.364 434.745 798.827 482.366 780.631 547.252C762.703 611.184 678.134 627.019 616.052 650.567C566.351 669.418 514.043 676.35 461.5 668.298C413.628 660.962 377.838 626.921 333.57 607.277C268.51 578.407 179.178 586.818 141.623 526.354C103.729 465.343 122.728 381.624 152.945 316.469C181.848 254.147 242.365 215.845 301.692 181.21C357.574 148.586 417.608 126.356 482.28 124.205C551.009 121.918 633.546 116.684 678.559 168.672C723.664 220.767 676.882 303.148 694.821 369.68Z" fill="#3E20EF"/>
<path fill-rule="evenodd" clip-rule="evenodd" d="M694.821 369.68C712.364 434.745 798.827 482.366 780.631 547.252C762.703 611.184 678.134 627.019 616.052 650.567C566.351 669.418 514.043 676.35 461.5 668.298C413.628 660.962 377.838 626.921 333.57 607.277C268.51 578.407 179.178 586.818 141.623 526.354C103.729 465.343 122.728 381.624 152.945 316.469C181.848 254.147 242.365 215.845 301.692 181.21C357.574 148.586 417.608 126.356 482.28 124.205C551.009 121.918 633.546 116.684 678.559 168.672C723.664 220.767 676.882 303.148 694.821 369.68Z" fill="url(#paint0_linear_235_87)"/>
<g filter="url(#filter0_bd_235_87)">
<path fill-rule="evenodd" clip-rule="evenodd" d="M275.5 229.408C275.5 229.408 278.723 214.205 279.265 207.471C279.807 200.736 286.183 188.188 286.183 188.188C286.183 188.188 281.554 186.001 278.157 188.984C274.761 191.968 267.893 205.04 265.675 205.337C263.457 205.635 258.442 202.303 258.087 201.069C257.733 199.835 248.054 171.498 244.957 171.174C241.893 170.762 238.19 172.931 238.883 175.996C239.454 179.117 246.781 194.04 244.644 194.669C242.506 195.297 232.858 176.817 230.067 177.308C227.276 177.799 224.751 180.597 226.016 183.468C227.249 186.429 234.544 200.336 232.818 201.214C231.092 202.093 224.104 186.791 222.136 186.677C220.135 186.653 218.247 190.185 219.126 191.911C220.004 193.637 229.242 211.868 227.104 213.601C224.999 215.246 216.807 206.839 215.145 206.436C213.04 205.87 211.636 210.282 215.603 213.735C216.828 214.784 244.663 238.779 248.058 241.32C251.42 243.95 275.5 229.408 275.5 229.408Z" fill="#FFBE9B"/>
<path fill-rule="evenodd" clip-rule="evenodd" d="M418.327 269.237C416.996 268.752 371.106 260.69 332.13 248.814L269.664 217.84L248.058 241.32L314.827 281.998L379.054 305.374L418.327 269.237Z" fill="#FFBE9B"/>
<path fill-rule="evenodd" clip-rule="evenodd" d="M237.451 219.677C237.394 219.556 239.298 218.742 242.669 218.864C245.952 218.954 250.605 220.246 254.33 223.812C254.532 224.086 254.854 224.304 255.056 224.578L253.943 224.876C255.114 220.279 257.099 216.481 258.842 213.901C260.552 211.409 262.021 210.135 262.077 210.256C262.4 210.474 257.317 216.159 255.161 225.119L254.862 226.216L254.048 225.417C253.814 225.231 253.612 224.957 253.378 224.771C249.943 221.512 245.621 220.14 242.613 219.848C239.459 219.404 237.563 219.919 237.451 219.677Z" fill="#FF996C"/>
<path fill-rule="evenodd" clip-rule="evenodd" d="M718.869 405.147C718.869 405.147 726.173 391.429 730.086 385.922C733.999 380.414 737.181 366.704 737.181 366.704C737.181 366.704 742.133 368.004 742.817 372.473C743.501 376.941 740.36 391.369 741.868 393.023C743.375 394.677 749.36 395.348 750.425 394.631C751.489 393.913 777.118 378.427 779.698 380.17C782.311 381.824 783.753 385.865 781.253 387.768C778.808 389.792 763.603 396.514 764.836 398.369C766.07 400.224 785.34 392.27 787.163 394.44C788.985 396.61 789.121 400.376 786.305 401.763C783.458 403.238 768.93 409.202 769.688 410.985C770.446 412.767 785.635 405.537 787.215 406.715C788.764 407.982 787.94 411.902 786.157 412.659C784.374 413.417 765.579 421.444 766.103 424.146C766.659 426.76 778.338 425.586 779.87 426.344C781.846 427.264 780.086 431.547 774.828 431.642C773.215 431.658 736.468 432.147 732.234 431.912C728 431.676 718.869 405.147 718.869 405.147Z" fill="#FFBE9B"/>
<path fill-rule="evenodd" clip-rule="evenodd" d="M583.888 343.761C585.219 344.246 625.555 367.567 663.047 383.523L730.808 399.948L732.266 431.823L654.971 420.065L590.744 396.688L583.888 343.761Z" fill="#FFBE9B"/>
<path fill-rule="evenodd" clip-rule="evenodd" d="M754.271 422.151C754.118 422.296 752.909 420.65 750.296 418.996C747.716 417.253 743.522 415.526 738.884 415.847C738.586 415.839 738.255 415.92 737.957 415.912L736.82 416L737.296 414.968C741.436 406.629 741.164 399.096 741.551 399.137C741.672 399.08 741.978 401 741.687 404.008C741.395 407.016 740.563 411.234 738.384 415.565L737.723 414.621C738.022 414.629 738.352 414.549 738.772 414.5C743.918 414.163 748.313 416.165 750.885 418.206C753.369 420.215 754.392 422.095 754.271 422.151Z" fill="#FF996C"/>
<path fill-rule="evenodd" clip-rule="evenodd" d="M684.136 771.346L652.815 727.396L612.076 755.968L651.27 797.057L684.136 771.346Z" fill="#FFBE9B"/>
<path fill-rule="evenodd" clip-rule="evenodd" d="M681.929 761.401L683.831 763.902C683.831 763.902 739.471 749.594 745.856 757.444L660.24 819.611L640.673 790.287C657.701 786.84 671.503 777.9 681.929 761.401Z" fill="#202D34"/>
<path fill-rule="evenodd" clip-rule="evenodd" d="M660.24 819.611L655.564 812.585L739.308 755.563C739.308 755.563 744.325 754.475 745.856 757.444L660.24 819.611Z" fill="#DFDFDF"/>
<path fill-rule="evenodd" clip-rule="evenodd" d="M690.588 774.599C690.467 774.655 689.822 774.219 689.104 773.155C688.387 772.09 687.685 770.428 687.5 768.452C687.315 766.476 687.751 764.726 688.292 763.516C688.833 762.307 689.325 761.782 689.503 761.847C689.857 761.976 688.348 764.742 688.638 768.364C688.959 771.896 690.862 774.397 690.588 774.599Z" fill="#202D34"/>
<path fill-rule="evenodd" clip-rule="evenodd" d="M685.328 776.904C685.142 777.138 683.094 774.484 682.724 770.531C682.354 766.579 684.017 763.668 684.251 763.854C684.606 763.983 683.572 766.822 683.862 770.443C684.151 774.064 685.691 776.735 685.328 776.904Z" fill="#202D34"/>
<path fill-rule="evenodd" clip-rule="evenodd" d="M698.637 771.802C698.452 772.036 696.194 770.511 694.937 767.341C693.736 764.292 694.35 761.501 694.616 761.598C694.914 761.606 694.905 764.115 695.993 766.922C697.17 769.761 698.912 771.6 698.637 771.802Z" fill="#202D34"/>
<path fill-rule="evenodd" clip-rule="evenodd" d="M690.26 762.525C690.228 762.614 688.655 762.242 686.817 760.669C685.881 759.927 684.898 758.765 683.946 757.514C683.487 756.845 683.027 756.175 682.479 755.474C682.221 755.078 681.931 754.772 681.705 754.288C681.479 753.804 681.439 753.086 681.754 752.497C682.101 751.82 682.972 751.635 683.504 751.828C684.069 751.933 684.448 752.272 684.859 752.522C685.561 753.079 686.141 753.692 686.722 754.305C687.762 755.588 688.471 756.951 688.858 758.097C689.72 760.42 689.559 761.968 689.438 762.025C689.228 762.049 689.059 760.581 688.132 758.435C687.624 757.346 686.939 756.193 685.955 755.031C685.464 754.45 684.851 753.926 684.238 753.401C683.625 752.877 682.883 752.707 682.754 753.062C682.504 753.473 682.842 754.199 683.391 754.901C683.85 755.571 684.31 756.24 684.769 756.91C685.721 758.16 686.527 759.257 687.43 760.088C689.026 761.775 690.413 762.38 690.26 762.525Z" fill="#202D34"/>
<path fill-rule="evenodd" clip-rule="evenodd" d="M690.728 761.791C690.817 761.823 690.752 762.001 690.502 762.412L690.284 762.735L690.115 762.372C689.777 761.646 689.341 760.081 689.31 757.96C689.278 756.943 689.31 755.75 689.585 754.443C689.722 753.79 689.86 753.137 690.086 752.516C690.215 752.161 690.344 751.806 690.594 751.395C690.933 751.016 691.328 750.758 691.957 750.685C692.764 750.677 693.312 751.379 693.328 751.887C693.433 752.428 693.481 752.847 693.441 753.234C693.449 754.041 693.335 754.904 693.254 755.678C693.004 757.194 692.52 758.525 691.955 759.525C690.914 761.557 689.752 762.541 689.696 762.42C689.55 762.267 690.446 761.186 691.189 759.146C691.576 758.081 691.996 756.928 692.125 755.468C692.174 754.783 692.255 754.008 692.247 753.202C692.239 752.395 692.022 751.613 691.868 751.758C691.183 751.709 690.835 753.492 690.569 754.5C690.327 755.718 690.149 756.758 690.181 757.774C690.067 759.742 690.414 761.275 690.422 762.081L690.123 762.073C690.486 761.904 690.639 761.759 690.728 761.791Z" fill="#202D34"/>
<path fill-rule="evenodd" clip-rule="evenodd" d="M562.45 206.965C565.73 189.674 562.114 171.179 552.601 156.464L554.222 156.15C543.692 145.888 524.81 146.149 514.492 156.558C510.224 160.831 507.504 166.372 504.172 171.387C500.839 176.403 496.41 181.12 490.546 182.602C487.449 183.384 484.109 183.173 480.988 183.745C477.867 184.317 474.591 186.138 473.671 189.219C472.516 193.219 475.725 197.1 479.161 199.254C482.685 201.441 486.765 202.926 489.305 206.161C482.691 207.772 478.212 215.385 479.912 222.031C481.733 228.621 489.41 232.922 496.032 231.013C490.933 236.189 491.286 245.158 495.728 250.894C500.203 256.541 507.929 259.051 515.083 258.441C522.237 257.83 528.989 254.46 534.837 250.26C549.06 240.166 559.17 224.256 562.45 206.965Z" fill="#090000"/>
<path fill-rule="evenodd" clip-rule="evenodd" d="M661.234 212.68C662.469 207.906 659.833 202.727 655.914 199.693C651.995 196.659 647.108 195.182 642.366 193.858C646.626 188.778 650.862 183.488 652.767 177.149C654.673 170.811 653.57 163.075 648.305 159.049C643.862 155.523 637.53 155.53 631.916 156.601C626.302 157.672 620.785 159.581 615.115 159.427C600.315 158.962 589.625 144.724 575.31 140.719C560.64 136.585 541.683 146.161 536.84 160.573C554.409 179.927 572.123 199.435 584.94 222.183C591.921 234.468 598.756 248.811 612.224 253.21C620.604 255.858 630.339 253.676 636.688 247.548C643.005 241.509 645.718 231.847 643.382 223.361C650.673 222.097 659.368 219.737 661.234 212.68Z" fill="#090000"/>
<path fill-rule="evenodd" clip-rule="evenodd" d="M624.272 231.978C631.819 213.728 621.447 186.746 602.938 179.909L540.485 162.703L535.982 172.316L481.65 291.781C481.65 291.781 467.854 332.169 500.991 345.737C530.701 357.956 544.066 326.755 544.098 326.666L554.154 304.005C554.154 304.005 577.88 314.449 596.987 287.347C606.58 273.961 615.806 252.203 624.272 231.978Z" fill="#FFBE9B"/>
<path fill-rule="evenodd" clip-rule="evenodd" d="M599.836 253.021C598.884 255.086 596.472 255.916 594.286 255.02C592.101 254.124 591.15 251.769 592.102 249.704C593.022 247.729 595.466 246.81 597.652 247.706C599.749 248.569 600.7 250.925 599.836 253.021Z" fill="#090000"/>
<path fill-rule="evenodd" clip-rule="evenodd" d="M611.372 245.064C610.679 245.314 608.833 241.829 604.736 239.836C600.672 237.754 596.711 238.422 596.462 237.728C596.381 237.398 597.236 236.704 599.035 236.455C600.745 236.173 603.398 236.335 605.963 237.57C608.527 238.805 610.204 240.822 610.938 242.395C611.703 243.879 611.703 244.984 611.372 245.064Z" fill="#090000"/>
<path fill-rule="evenodd" clip-rule="evenodd" d="M566.628 236.615C565.675 238.679 563.264 239.509 561.078 238.613C558.893 237.717 557.942 235.362 558.894 233.297C559.846 231.233 562.258 230.403 564.444 231.299C566.508 232.251 567.548 234.639 566.628 236.615Z" fill="#090000"/>
<path fill-rule="evenodd" clip-rule="evenodd" d="M573.631 227.309C572.937 227.559 571.091 224.074 566.994 222.081C562.93 219.999 558.97 220.667 558.72 219.973C558.639 219.642 559.494 218.949 561.293 218.7C563.003 218.418 565.656 218.58 568.221 219.815C570.785 221.049 572.462 223.066 573.196 224.639C573.962 226.123 573.961 227.228 573.631 227.309Z" fill="#090000"/>
<path fill-rule="evenodd" clip-rule="evenodd" d="M572.524 260.159C572.589 259.982 575.283 260.862 579.629 262.444C580.694 262.831 581.791 263.13 582.251 262.695C582.799 262.291 582.799 261.187 582.743 259.961C582.72 257.541 582.729 255.033 582.77 252.436C582.754 249.718 583.348 234.563 583.921 233.264C584.485 233.369 584.813 242.129 584.673 252.726C584.632 255.324 584.623 257.832 584.558 260.219C584.469 261.292 584.67 262.671 583.541 263.566C582.96 264.058 581.944 264.09 581.202 263.92C580.46 263.751 579.839 263.525 579.339 263.242C575.024 261.571 572.46 260.337 572.524 260.159Z" fill="#090000"/>
<path fill-rule="evenodd" clip-rule="evenodd" d="M554.203 304.425C554.203 304.425 533.768 295.983 519.901 274.46C519.901 274.46 519.862 299.963 550.749 311.707L554.203 304.425Z" fill="#FF996C"/>
<path fill-rule="evenodd" clip-rule="evenodd" d="M578.918 213.059C577.845 214.075 574.781 211.453 570.41 209.661C566.071 207.781 561.902 207.368 562.031 205.908C562.08 205.223 563.387 204.392 565.427 204.03C567.468 203.668 570.154 203.741 572.751 204.887C575.347 206.033 577.21 207.816 578.21 209.486C579.298 211.188 579.41 212.535 578.918 213.059Z" fill="#090000"/>
<path fill-rule="evenodd" clip-rule="evenodd" d="M618.353 231.129C617.134 231.992 614.514 229.531 610.941 228.03C607.345 226.319 603.917 226.076 603.659 224.576C603.619 223.858 604.539 222.987 606.346 222.439C608.153 221.891 610.661 221.9 613.169 223.014C615.677 224.128 617.386 226.056 618.208 227.661C618.966 229.444 618.901 230.726 618.353 231.129Z" fill="#090000"/>
<path fill-rule="evenodd" clip-rule="evenodd" d="M629.932 213.945C629.532 201.242 622.93 189.295 613.488 180.735C604.046 172.175 592.094 166.921 579.755 163.836C567.448 160.663 554.786 159.57 542.124 158.478C539.115 158.186 535.655 158.032 533.275 159.879C531.597 161.177 530.677 163.152 529.878 165.072C522.897 181.217 515.916 197.362 508.846 213.474L508.286 225.225C513.35 227.872 519.577 226.221 524.772 224.093C543.139 216.412 558.242 201.415 566.087 183.173C566.61 185.875 565.787 188.69 565.503 191.4C565.099 194.166 565.373 197.279 567.413 199.127C570.824 202.177 576.486 199.315 579.157 195.565C581.828 191.816 583.362 187.05 587.137 184.405C588.296 192.261 591.165 199.836 595.583 206.467C597.679 209.54 600.937 212.735 604.631 211.97C607.244 211.414 609.044 208.955 609.593 206.342C610.142 203.729 609.707 201.059 609.361 198.421C611.569 206.157 616.067 213.119 622.107 218.331C623.389 219.501 625.09 220.622 626.832 220.252C629.325 219.752 629.979 216.575 629.932 213.945Z" fill="#090000"/>
<path fill-rule="evenodd" clip-rule="evenodd" d="M525.825 208.503C525.478 208.075 510.263 194.4 502.087 212.722C493.912 231.044 514.009 235.446 514.292 234.946C514.574 234.446 525.825 208.503 525.825 208.503Z" fill="#FFBE9B"/>
<path fill-rule="evenodd" clip-rule="evenodd" d="M511.802 225.5C511.746 225.379 511.383 225.549 510.754 225.621C510.157 225.605 509.117 225.427 508.302 224.628C506.674 223.031 506.449 219.232 507.765 215.893C508.467 214.24 509.491 212.805 510.685 211.732C511.879 210.66 513.089 210.096 514.186 210.395C515.226 210.572 515.71 211.452 515.662 212.137C515.645 212.734 515.427 213.057 515.484 213.178C515.54 213.299 516.024 213.073 516.226 212.242C516.267 211.855 516.251 211.347 516.057 210.774C515.743 210.258 515.219 209.766 514.509 209.508C513.09 208.991 511.218 209.716 509.903 210.845C508.5 211.942 507.321 213.522 506.522 215.441C504.957 219.191 505.407 223.474 507.713 225.419C508.882 226.346 510.076 226.379 510.826 226.25C511.552 225.912 511.891 225.533 511.802 225.5Z" fill="#FF996C"/>
<path fill-rule="evenodd" clip-rule="evenodd" d="M563.507 179.22C563.507 179.22 563.2 179.51 562.587 180.091C561.974 180.671 561.087 181.453 559.836 182.405C557.335 184.307 553.681 186.895 548.688 189.297C546.235 190.514 543.396 191.691 540.323 192.682C538.726 193.206 537.161 193.641 535.419 194.012C533.676 194.382 531.789 194.599 529.926 193.921C528.063 193.243 526.653 191.323 526.258 189.371C525.863 187.419 526.13 185.306 526.84 183.355C528.471 179.427 531.859 176.743 533.925 173.275C534.207 172.775 534.457 172.364 534.707 171.953L535.344 172.687C531.481 174.194 527.738 175.645 524.173 177.16C522.39 177.917 520.551 178.554 518.889 179.255C517.139 179.924 515.299 180.561 513.307 180.237C512.356 180.092 511.356 179.527 510.84 178.737C510.235 177.914 509.961 177.01 509.986 176.115C509.946 174.292 510.438 172.663 511.076 171.187C512.263 168.204 513.707 165.615 515.321 163.389C518.516 159.027 521.969 156.165 524.461 154.56C525.768 153.73 526.769 153.19 527.495 152.852C528.221 152.513 528.584 152.344 528.584 152.344C528.64 152.465 527.188 153.142 524.752 154.867C522.316 156.592 518.984 159.398 515.998 163.736C514.505 165.906 513.061 168.494 511.995 171.422C511.479 172.841 510.898 174.438 511.034 175.994C511.05 177.608 512.058 178.979 513.663 179.262C515.267 179.544 516.986 178.964 518.736 178.295C520.487 177.626 522.269 176.869 524.02 176.2C527.641 174.806 531.295 173.323 535.159 171.816L536.458 171.284L535.796 172.55C535.514 173.05 535.231 173.55 534.949 174.05C532.609 177.719 529.309 180.436 527.929 183.952C527.283 185.726 526.992 187.629 527.363 189.372C527.733 191.114 528.798 192.606 530.362 193.276C531.927 193.946 533.725 193.697 535.346 193.383C537 192.98 538.653 192.577 540.129 192.11C543.203 191.118 546.01 190.031 548.462 188.813C553.423 186.5 557.223 184.065 559.691 182.251C560.909 181.389 561.885 180.639 562.555 180.179C563.144 179.389 563.418 179.188 563.507 179.22Z" fill="#365864"/>
<path fill-rule="evenodd" clip-rule="evenodd" d="M559.008 257.55C556.934 259.106 554.127 262.404 553.311 264.92C552.528 267.348 552.866 270.284 554.575 272.212C556.43 274.293 559.64 274.859 562.342 274.335C565.133 273.844 567.561 272.417 570.078 271.023C566.699 266.779 562.418 261.705 559.008 257.55Z" fill="#FF996C"/>
<path fill-rule="evenodd" clip-rule="evenodd" d="M559.228 275.713C559.284 275.834 556.639 275.374 554.366 272.236C553.213 270.711 552.35 268.388 552.48 265.823C552.61 263.258 553.909 260.517 556.233 258.549C557.12 257.767 558.241 257.171 559.266 256.84L559.629 256.671L559.919 256.978C563.257 260.503 565.821 263.948 567.514 266.473C569.207 268.998 569.997 270.692 569.876 270.748C569.602 270.95 565.651 264.69 558.999 257.848L559.653 257.986C558.717 258.348 557.838 258.832 556.983 259.525C554.966 261.202 553.796 263.589 553.553 265.912C553.343 268.146 554.092 270.227 554.947 271.744C556.954 274.785 559.293 275.536 559.228 275.713Z" fill="#090000"/>
<path fill-rule="evenodd" clip-rule="evenodd" d="M70.3318 555.174L121.544 537.848L137.79 584.85L81.902 595.149L70.3318 555.174Z" fill="#FFBE9B"/>
<path fill-rule="evenodd" clip-rule="evenodd" d="M78.0441 548.337L75.0919 549.272C75.0919 549.272 38.3992 505.175 28.6231 507.745L61.565 608.242L94.5723 595.944C82.6473 583.165 76.7963 567.774 78.0441 548.337Z" fill="#202D34"/>
<path fill-rule="evenodd" clip-rule="evenodd" d="M61.4762 608.209L69.3812 605.26L34.8328 510.005C34.8328 510.005 31.4143 506.149 28.4457 507.68L61.4762 608.209Z" fill="#DFDFDF"/>
<path fill-rule="evenodd" clip-rule="evenodd" d="M63.2264 553.994C63.2829 554.115 64.0893 554.107 65.267 553.631C66.4447 553.156 67.9936 552.213 69.2603 550.665C70.527 549.117 71.2292 547.463 71.4715 546.245C71.7138 545.028 71.6173 544.189 71.5286 544.157C71.2302 544.148 70.818 547.213 68.4136 549.955C66.0981 552.728 63.1459 553.663 63.2264 553.994Z" fill="#202D34"/>
<path fill-rule="evenodd" clip-rule="evenodd" d="M66.0801 558.85C66.1607 559.181 69.3226 558.222 71.8238 555.215C74.4136 552.239 74.7453 548.844 74.4469 548.836C74.092 548.706 73.3249 551.642 70.9206 554.384C68.7502 557.311 65.9673 558.608 66.0801 558.85Z" fill="#202D34"/>
<path fill-rule="evenodd" clip-rule="evenodd" d="M58.2521 546.96C58.244 547.258 61.0185 547.364 63.7854 545.558C66.5524 543.752 67.6983 541.155 67.3435 541.026C67.1097 540.841 65.6493 542.921 63.1566 544.525C60.7203 546.251 58.2603 546.661 58.2521 546.96Z" fill="#202D34"/>
<path fill-rule="evenodd" clip-rule="evenodd" d="M70.5687 544.31C70.5364 544.399 72.0122 545.036 74.4964 544.835C75.7224 544.779 77.134 544.489 78.7311 543.965C79.5135 543.748 80.3281 543.442 81.1105 543.224C81.4735 543.055 81.9253 542.918 82.4093 542.692C82.8933 542.466 83.3855 541.942 83.4664 541.168C83.5472 540.394 82.9666 539.781 82.4343 539.587C81.9021 539.393 81.4262 539.321 80.9181 539.337C79.9906 539.401 79.1517 539.497 78.3693 539.715C76.8045 540.15 75.4736 540.771 74.4087 541.488C72.4 542.867 71.585 544.278 71.6737 544.31C71.8188 544.463 72.8354 543.327 74.8682 542.158C75.8685 541.618 77.1673 541.086 78.6111 540.707C79.3612 540.578 80.1113 540.449 80.9501 540.353C81.7567 540.345 82.4663 540.603 82.3372 540.958C82.3531 541.466 81.6272 541.805 80.7238 542.079C79.9091 542.385 79.2154 542.635 78.4007 542.941C76.9246 543.408 75.5695 543.819 74.4 543.996C72.0286 544.439 70.5123 544.189 70.5687 544.31Z" fill="#202D34"/>
<path fill-rule="evenodd" clip-rule="evenodd" d="M70.561 543.503C70.4723 543.471 70.4964 543.681 70.4237 544.156L70.3832 544.544L70.7462 544.374C71.4158 543.915 72.6662 542.963 73.9652 541.327C74.5865 540.448 75.2401 539.48 75.7485 538.359C76.0633 537.77 76.2892 537.149 76.5153 536.528C76.6444 536.173 76.7736 535.819 76.7253 535.399C76.7093 534.891 76.4837 534.407 76.1047 534.068C75.4919 533.544 74.5884 533.818 74.2496 534.197C73.822 534.543 73.6041 534.866 73.354 535.277C72.886 536.011 72.4503 536.656 72.1032 537.334C71.4092 538.688 71.0137 540.051 70.8923 541.213C70.561 543.503 70.8508 544.915 70.9718 544.858C71.1815 544.834 71.0691 543.487 71.6343 541.382C71.9007 540.374 72.3527 539.132 73.0145 537.866C73.3292 537.277 73.7649 536.632 74.2006 535.987C74.6363 535.342 75.2172 534.85 75.4188 535.125C76.0075 535.439 75.2166 537.06 74.8291 538.125C74.3207 539.246 73.7881 540.157 73.2555 541.068C72.1339 542.77 71.0609 543.786 70.5365 544.398L70.8027 544.495C70.6738 543.745 70.6497 543.535 70.561 543.503Z" fill="#202D34"/>
<path fill-rule="evenodd" clip-rule="evenodd" d="M347.788 453.93L107.763 530.723C107.763 530.723 123.543 600.259 126.979 597.994C130.416 595.729 377.742 541.384 380.226 542.288C390.339 545.969 413.314 554.332 413.314 554.332L618.645 769.11L668.345 738.274L498.52 518.135L498.216 483.365L382.058 427.123L347.788 453.93Z" fill="#5B686F"/>
<path opacity="0.3" fill-rule="evenodd" clip-rule="evenodd" d="M371.708 435.411C375.091 450.406 381.991 464.57 391.641 476.421C391.182 475.752 390.779 475.203 390.319 474.534C399.76 486.409 410.048 498.994 424.5 503.45C434.597 506.623 445.502 505.368 456.043 505.387C464.076 505.398 472.271 506.069 480.159 504.822C488.168 503.517 496.178 500.003 500.633 493.286L371.708 435.411Z" fill="black"/>
<path fill-rule="evenodd" clip-rule="evenodd" d="M380.697 527.19C380.52 527.125 381.11 524.125 381.603 519.181C382.097 514.237 382.195 507.341 381.173 499.937C380.095 492.412 378.032 485.934 376.219 481.256C374.373 476.666 372.954 473.94 373.107 473.794C373.228 473.738 373.599 474.375 374.373 475.561C375.147 476.747 375.993 478.562 377.065 480.861C379.121 485.427 381.329 492.057 382.464 499.703C383.51 507.317 383.258 514.358 382.498 519.206C382.102 521.673 381.779 523.665 381.384 525.028C381.044 526.512 380.786 527.222 380.697 527.19Z" fill="#202D34"/>
<path fill-rule="evenodd" clip-rule="evenodd" d="M467.783 517.295C467.807 517.505 465.025 517.697 460.701 518.535C456.378 519.372 450.449 521.032 444.456 523.974C438.462 526.916 433.437 530.512 430.161 533.439C426.797 536.333 425.038 538.406 424.804 538.22C424.716 538.188 425.119 537.631 425.894 536.607C426.668 535.583 427.838 534.301 429.524 532.705C432.775 529.568 437.688 525.731 443.892 522.764C450.095 519.798 456.112 518.171 460.548 517.575C462.766 517.277 464.533 517.116 465.847 517.093C467.041 517.125 467.727 517.174 467.783 517.295Z" fill="#202D34"/>
<path fill-rule="evenodd" clip-rule="evenodd" d="M394.83 547.704C394.742 547.672 394.887 546.72 395.17 545.115C395.485 543.421 395.969 540.986 396.736 538.05C398.182 532.147 400.789 524.155 404.518 515.566C408.303 507.099 412.387 499.744 415.429 494.422C416.994 491.777 418.245 489.721 419.181 488.253C420.117 486.785 420.585 486.051 420.674 486.084C420.763 486.116 420.351 486.971 419.592 488.503C418.648 490.269 417.575 492.39 416.284 494.833C413.419 500.22 409.545 507.551 405.76 516.018C401.975 524.486 399.311 532.357 397.688 538.196C395.944 544.091 395.096 547.801 394.83 547.704Z" fill="#202D34"/>
<path fill-rule="evenodd" clip-rule="evenodd" d="M425.591 492.998C425.503 492.965 425.809 492.675 426.35 492.57C426.89 492.466 427.842 492.611 428.6 493.289C429.39 493.878 430.035 495.419 429.341 496.773C428.679 498.039 427.187 499.104 425.493 498.789C423.799 498.474 422.638 497.247 422.195 495.981C421.752 494.715 422.027 493.408 422.438 492.553C423.382 490.787 424.649 490.344 424.673 490.554C424.818 490.707 423.874 491.368 423.293 492.965C423.002 493.763 422.946 494.747 423.308 495.683C423.671 496.619 424.574 497.45 425.614 497.627C426.655 497.805 427.808 497.12 428.188 496.354C428.688 495.531 428.414 494.628 427.922 494.047C426.914 492.676 425.648 493.119 425.591 492.998Z" fill="#202D34"/>
<path fill-rule="evenodd" clip-rule="evenodd" d="M488.163 277.476L475.744 272.955C470.066 270.889 464.13 269.532 458.146 268.861L387.632 261.38L369.164 312.122L417.663 331.783L396.679 381.71L371.04 432.555C371.04 432.555 395.884 476.358 424.9 487.722C453.828 499.055 511.117 497.604 511.117 497.604L561.122 390.026L589.935 404.431L629.058 359.599C629.058 359.599 587.725 324.663 581.773 321.694C579.564 320.588 552.096 310.49 552.096 310.49C539.122 325.157 523.412 320.846 510.662 315.301C490.001 306.374 487.542 277.25 488.163 277.476Z" fill="#FF4949"/>
<path fill-rule="evenodd" clip-rule="evenodd" d="M427.825 305.243C427.825 305.243 427.752 305.719 427.462 306.517C427.107 307.493 426.687 308.646 426.259 310.098C425.064 313.38 423.45 317.816 421.392 323.195C417.178 334.219 411.326 349.469 404.184 366.057C397.041 382.646 389.713 397.258 384.113 407.677C381.312 412.887 378.988 417.064 377.27 419.854C376.487 421.176 375.801 422.233 375.268 423.144C374.8 423.878 374.55 424.289 374.461 424.257C374.461 424.257 374.623 423.813 375.002 423.047C375.446 422.104 376.043 421.015 376.737 419.66C378.375 416.539 380.49 412.386 383.169 407.233C388.592 396.75 395.654 382.04 402.885 365.484C410.028 348.896 416.025 333.799 420.448 322.751C422.595 317.404 424.387 313.033 425.67 309.783C426.276 308.396 426.728 307.154 427.139 306.299C427.575 305.654 427.825 305.243 427.825 305.243Z" fill="#202D34"/>
<path fill-rule="evenodd" clip-rule="evenodd" d="M582.189 361.126C582.334 361.279 579.567 364.19 575.573 369.367C571.579 374.543 566.657 381.994 561.88 390.704C557.102 399.413 553.237 407.55 550.388 413.445C549.089 416.187 547.951 418.485 547.031 420.461C546.24 422.082 545.707 422.993 545.618 422.96C545.53 422.928 545.885 421.952 546.498 420.267C547.112 418.581 548.105 416.13 549.412 413.09C551.995 407.098 555.715 398.808 560.581 390.131C565.391 381.333 570.523 373.858 574.662 368.834C576.792 366.294 578.607 364.343 579.866 363.093C581.366 361.73 582.1 361.093 582.189 361.126Z" fill="#202D34"/>
<path fill-rule="evenodd" clip-rule="evenodd" d="M492.199 429.236C492.255 429.357 491.231 429.687 489.336 430.203C487.44 430.718 484.673 431.419 481.31 432.104C474.494 433.441 464.872 434.76 454.209 434.798C443.547 434.835 433.901 433.735 427.037 432.443C423.65 431.812 420.86 431.199 418.965 430.609C417.037 430.109 416.061 429.754 416.094 429.665C416.126 429.576 417.166 429.754 419.07 430.045C420.941 430.424 423.763 430.95 427.215 431.402C434.054 432.485 443.644 433.464 454.218 433.394C464.792 433.325 474.317 432.271 481.157 431.144C484.577 430.58 487.368 430.089 489.231 429.662C491.094 429.235 492.143 429.115 492.199 429.236Z" fill="#202D34"/>
<path fill-rule="evenodd" clip-rule="evenodd" d="M555.433 399.307C555.433 399.307 554.869 399.202 553.949 398.968C552.852 398.669 551.401 398.241 549.683 397.717C545.981 396.57 540.683 394.843 534.142 392.663C521.062 388.304 503.11 381.871 483.368 374.283C463.747 366.64 446.118 359.319 433.489 353.718C427.175 350.917 422.07 348.658 418.562 346.979C416.941 346.188 415.554 345.583 414.522 345.106C413.578 344.663 413.167 344.412 413.167 344.412C413.167 344.412 413.732 344.518 414.586 344.929C415.651 345.317 417.038 345.922 418.691 346.624C422.441 348.19 427.49 350.329 433.78 352.92C446.505 358.255 464.167 365.486 483.787 373.13C503.441 380.685 521.36 387.207 534.344 391.833C540.764 394.069 545.997 395.974 549.756 397.241C551.441 397.854 552.86 398.371 553.925 398.758C554.933 399.025 555.433 399.307 555.433 399.307Z" fill="#040101"/>
<path fill-rule="evenodd" clip-rule="evenodd" d="M395.365 321.558C395.188 321.493 396.261 318.267 397.924 313.146C399.716 307.67 401.937 300.743 404.358 292.984C406.659 285.283 408.823 278.234 410.526 272.726C412.101 267.573 413.086 264.314 413.263 264.379C413.352 264.411 413.239 265.274 412.899 266.758C412.56 268.242 412.084 270.379 411.413 273.049C410.105 278.299 408.087 285.501 405.6 293.436C403.114 301.372 400.652 308.412 398.811 313.469C397.875 316.042 397.044 318.05 396.438 319.437C395.833 320.824 395.454 321.59 395.365 321.558Z" fill="#040101"/>
<path fill-rule="evenodd" clip-rule="evenodd" d="M618.269 350.046C618.358 350.079 617.89 350.813 616.986 352.191C616.115 353.482 614.719 355.385 612.984 357.667C609.514 362.231 604.657 368.399 599.01 375.084C593.273 381.736 587.948 387.534 583.955 391.606C581.986 393.702 580.3 395.298 579.195 396.403C578.001 397.475 577.388 398.056 577.299 398.024C577.154 397.87 579.526 395.217 583.374 390.992C587.223 386.767 592.402 380.816 598.107 374.253C603.722 367.657 608.757 361.553 612.371 357.142C615.93 352.611 618.213 349.925 618.269 350.046Z" fill="#040101"/>
</g>
<defs>
<filter id="filter0_bd_235_87" x="24.4458" y="135.751" width="768.038" height="691.859" filterUnits="userSpaceOnUse" color-interpolation-filters="sRGB">
<feFlood flood-opacity="0" result="BackgroundImageFix"/>
<feGaussianBlur in="BackgroundImage" stdDeviation="2"/>
<feComposite in2="SourceAlpha" operator="in" result="effect1_backgroundBlur_235_87"/>
<feColorMatrix in="SourceAlpha" type="matrix" values="0 0 0 0 0 0 0 0 0 0 0 0 0 0 0 0 0 0 127 0" result="hardAlpha"/>
<feOffset dy="4"/>
<feGaussianBlur stdDeviation="2"/>
<feComposite in2="hardAlpha" operator="out"/>
<feColorMatrix type="matrix" values="0 0 0 0 0 0 0 0 0 0 0 0 0 0 0 0 0 0 0.25 0"/>
<feBlend mode="normal" in2="effect1_backgroundBlur_235_87" result="effect2_dropShadow_235_87"/>
<feBlend mode="normal" in="SourceGraphic" in2="effect2_dropShadow_235_87" result="shape"/>
</filter>
<linearGradient id="paint0_linear_235_87" x1="732.237" y1="331.318" x2="129.425" y2="502.043" gradientUnits="userSpaceOnUse">
<stop offset="0.208333" stop-color="#7B2DF7"/>
<stop offset="0.822917" stop-color="#7B2DF7" stop-opacity="0"/>
</linearGradient>
</defs>
</svg>
